<?xml version="1.0" encoding="utf-8"?>
<!-- Generator: Adobe Illustrator 16.0.4, SVG Export Plug-In . SVG Version: 6.00 Build 0)  -->
<!DOCTYPE svg PUBLIC "-//W3C//DTD SVG 1.1//EN" "http://www.w3.org/Graphics/SVG/1.1/DTD/svg11.dtd">
<svg version="1.1" id="Layer_1" xmlns="http://www.w3.org/2000/svg" xmlns:xlink="http://www.w3.org/1999/xlink" x="0px" y="0px"
	 width="42px" height="42px" viewBox="0 0 42 42" enable-background="new 0 0 42 42" xml:space="preserve">
<path d="M13.5,9.02v-5c0-1.25-0.27-1.5-1.5-1.5L10,2.5C8.811,2.5,8.5,2.779,8.5,4v5c0,1.23,0.25,1.5,1.5,1.5h2
	C13.25,10.5,13.5,10.25,13.5,9.02z M33.5,9.02v-5c0-1.25-0.27-1.5-1.5-1.5L30,2.5c-1.189,0-1.5,0.279-1.5,1.5v5
	c0,1.23,0.25,1.5,1.5,1.5h2C33.25,10.5,33.5,10.25,33.5,9.02z M15.5,23.02v-2c0-1.25-0.27-1.5-1.5-1.5l-2-0.02
	c-1.189,0-1.5,0.279-1.5,1.5v2c0,1.23,0.25,1.5,1.5,1.5h2C15.25,24.5,15.5,24.25,15.5,23.02z M23.5,23.02v-2
	c0-1.25-0.27-1.5-1.5-1.5l-2-0.02c-1.189,0-1.5,0.279-1.5,1.5v2c0,1.23,0.25,1.5,1.5,1.5h2C23.25,24.5,23.5,24.25,23.5,23.02z
	 M31.5,23.02v-2c0-1.25-0.27-1.5-1.5-1.5l-2-0.02c-1.189,0-1.5,0.279-1.5,1.5v2c0,1.23,0.25,1.5,1.5,1.5h2
	C31.25,24.5,31.5,24.25,31.5,23.02z M15.5,31.02v-2c0-1.25-0.27-1.5-1.5-1.5l-2-0.02c-1.189,0-1.5,0.279-1.5,1.5v2
	c0,1.23,0.25,1.5,1.5,1.5h2C15.25,32.5,15.5,32.25,15.5,31.02z M23.5,31.02v-2c0-1.25-0.27-1.5-1.5-1.5l-2-0.02
	c-1.189,0-1.5,0.279-1.5,1.5v2c0,1.23,0.25,1.5,1.5,1.5h2C23.25,32.5,23.5,32.25,23.5,31.02z M31.5,31.02v-2
	c0-1.25-0.27-1.5-1.5-1.5l-2-0.02c-1.189,0-1.5,0.279-1.5,1.5v2c0,1.23,0.25,1.5,1.5,1.5h2C31.25,32.5,31.5,32.25,31.5,31.02z
	 M4.5,40.5h33c2.406,0,2.969-0.484,3-3v-29c0-2.35-0.38-3-3-3h-2v5.52c0,1.23-1.25,1.48-2.5,1.48h-5c-1.25,0-1.5-0.27-1.5-1.5V5.5
	h-11v5.52c0,1.23-0.25,1.48-1.5,1.48H8c-1.25,0-1.5-0.27-1.5-1.5V5.5h-2c-2.58,0-3,0.561-3,3v29C1.49,39.93,2.094,40.5,4.5,40.5z
	 M6.5,15.5h29v20h-29V15.5z"/>
</svg>
