<?xml version="1.0" encoding="utf-8"?>
<!-- Generator: Adobe Illustrator 16.0.4, SVG Export Plug-In . SVG Version: 6.00 Build 0)  -->
<!DOCTYPE svg PUBLIC "-//W3C//DTD SVG 1.1//EN" "http://www.w3.org/Graphics/SVG/1.1/DTD/svg11.dtd">
<svg version="1.1" id="Layer_1" xmlns="http://www.w3.org/2000/svg" xmlns:xlink="http://www.w3.org/1999/xlink" x="0px" y="0px"
	 width="42px" height="42px" viewBox="0 0 42 42" enable-background="new 0 0 42 42" xml:space="preserve">
<path d="M21,1C9.954,1,1,9.954,1,21c0,11.045,8.954,20,20,20c11.047,0,20-8.955,20-20C41,9.954,32.047,1,21,1z M21,3.897
	c4.357,0,8.334,1.63,11.354,4.312c-2.219,2.927-5.59,4.876-8.967,6.195c-1.842-3.368-4.108-6.919-6.416-10.03
	C18.262,4.062,19.611,3.897,21,3.897z M13.724,5.519c2.229,3.335,4.389,6.428,6.363,9.929c-4.991,1.293-10.629,2.069-15.838,2.082
	C5.347,12.202,8.926,7.778,13.724,5.519z M34.251,10.188c2.386,2.919,3.823,6.642,3.851,10.699
	c-3.955-0.779-7.891-0.984-11.896-0.58c-0.45-1.123-0.995-2.189-1.519-3.34C28.141,15.574,31.832,13.189,34.251,10.188
	L34.251,10.188z M21.476,18.094c0.428,0.911,0.924,1.876,1.389,2.863c-5.57,2.456-11.494,5.739-14.57,11.493
	C5.562,29.418,3.898,25.401,3.898,21c0-0.167,0.003-0.334,0.008-0.5C9.871,20.471,15.726,19.725,21.476,18.094z M38.045,22.424
	c-0.006,0.066-0.012,0.133-0.019,0.199C38.033,22.557,38.039,22.49,38.045,22.424z M30.514,22.757
	c2.485-0.009,5.055,0.339,7.375,0.95c-0.758,4.775-3.496,8.895-7.347,11.486c-0.918-4.175-1.793-8.17-3.34-12.197
	C28.27,22.836,29.383,22.76,30.514,22.757z M37.979,23.066c-0.012,0.098-0.023,0.194-0.037,0.291
	C37.955,23.26,37.967,23.164,37.979,23.066z M24.037,23.777c1.577,4.072,2.814,8.582,3.645,12.971
	c-2.053,0.873-4.311,1.354-6.682,1.354c-3.955,0-7.597-1.344-10.494-3.599C13.603,29.479,18.4,25.677,24.037,23.777z"/>
</svg>
