<?xml version="1.0" encoding="utf-8"?>
<!-- Generator: Adobe Illustrator 16.0.4, SVG Export Plug-In . SVG Version: 6.00 Build 0)  -->
<!DOCTYPE svg PUBLIC "-//W3C//DTD SVG 1.1//EN" "http://www.w3.org/Graphics/SVG/1.1/DTD/svg11.dtd">
<svg version="1.1" id="Layer_1" xmlns="http://www.w3.org/2000/svg" xmlns:xlink="http://www.w3.org/1999/xlink" x="0px" y="0px"
	 width="42px" height="42px" viewBox="0 0 42 42" enable-background="new 0 0 42 42" xml:space="preserve">
<path d="M21,1c1.081,0,5.141,12.315,6.201,13.126c1.06,0.811,13.461,1.053,13.791,2.137c0.34,1.087-9.561,8.938-9.961,10.252
	c-0.409,1.307,3.201,13.769,2.33,14.441c-0.879,0.673-11.049-6.79-12.36-6.79c-1.311,0-11.481,7.463-12.36,6.79
	C7.77,40.283,11.38,27.82,10.97,26.516c-0.399-1.313-10.3-9.166-9.96-10.252c0.33-1.084,12.731-1.326,13.791-2.137
	C15.861,13.315,19.91,1,21,1z"/>
</svg>
