<?xml version="1.0" encoding="utf-8"?>
<!-- Generator: Adobe Illustrator 16.0.4, SVG Export Plug-In . SVG Version: 6.00 Build 0)  -->
<!DOCTYPE svg PUBLIC "-//W3C//DTD SVG 1.1//EN" "http://www.w3.org/Graphics/SVG/1.1/DTD/svg11.dtd">
<svg version="1.1" id="Layer_1" xmlns="http://www.w3.org/2000/svg" xmlns:xlink="http://www.w3.org/1999/xlink" x="0px" y="0px"
	 width="42px" height="42px" viewBox="0 0 42 42" enable-background="new 0 0 42 42" xml:space="preserve">
<path d="M34.492,11.5l3-0.012l0.008,4.039l-3-0.025v8.225c0,1.956,0.494,2.936,1.744,2.936c0.881,0,1.256-0.248,2.256-0.743v4.378
	c-1,0.584-2.336,0.876-3.812,0.876c-2.069,0-3.502-0.761-4.299-2.277c-0.596-1.14-0.889-2.935-0.889-5.387l-0.005-8.035
	c0,0-1.968,0.032-1.968,0.048l-0.027-4.02h2c-0.005,0-0.033-3.955-0.037-4.011L34.5,7.476v4.025L34.492,11.5L34.492,11.5z
	 M20.5,30.5v-19h5v19H20.5z M9.872,11.205c-1.932,0-3.593,0.656-4.985,1.97c-1.448,1.401-2.173,3.152-2.173,5.254
	c0,1.401,0.481,2.712,1.276,3.938c0.709,1.138,1.51,1.869,2.51,2.188v0.089c-1,0.407-1.406,1.431-1.406,3.063
	c0,1.255,0.406,2.188,1.406,2.803v0.088c-3,0.904-4,2.582-4,5.033c0,2.131,0.86,3.691,2.62,4.688
	c1.393,0.787,3.156,1.183,5.314,1.183c5.256,0,7.881-2.265,7.881-6.787c0-2.831-2.035-4.567-6.098-5.21
	c-0.938-0.146-1.647-0.495-2.13-1.051c-0.37-0.379-0.556-0.758-0.556-1.139c0-1.08,0.567-1.707,1.703-1.883
	c1.732-0.263,3.146-1.09,4.239-2.477c1.094-1.387,1.641-3.012,1.641-4.88c0-0.584-0.102-1.211-0.33-1.882
	c0.738-0.176,1.715-0.336,1.715-0.481v-4.509c-2,0.7-3.377,1.049-4.74,1.049C12.566,11.554,11.264,11.205,9.872,11.205z
	 M10.043,15.231c0.852,0,1.521,0.337,2.003,1.008c0.397,0.613,0.597,1.344,0.597,2.19c0,2.043-0.867,3.063-2.6,3.063
	c-1.79,0-2.685-1.008-2.685-3.021C7.358,16.311,8.253,15.231,10.043,15.231z M10.34,33.051c2.386,0,3.581,0.744,3.581,2.232
	c0,1.576-1.095,2.363-3.281,2.363c-2.499,0-3.75-0.763-3.75-2.277C6.89,33.822,8.04,33.051,10.34,33.051z M25.947,4.762
	c0,1.801-1.325,3.262-2.961,3.262c-1.636,0-2.961-1.461-2.961-3.262c0-1.801,1.325-3.262,2.961-3.262
	C24.622,1.5,25.947,2.961,25.947,4.762z"/>
</svg>
