<?xml version="1.0" encoding="utf-8"?>
<!-- Generator: Adobe Illustrator 16.0.4, SVG Export Plug-In . SVG Version: 6.00 Build 0)  -->
<!DOCTYPE svg PUBLIC "-//W3C//DTD SVG 1.1//EN" "http://www.w3.org/Graphics/SVG/1.1/DTD/svg11.dtd">
<svg version="1.1" id="Layer_1" xmlns="http://www.w3.org/2000/svg" xmlns:xlink="http://www.w3.org/1999/xlink" x="0px" y="0px"
	 width="42px" height="42px" viewBox="0 0 42 42" enable-background="new 0 0 42 42" xml:space="preserve">
<path d="M7.583,16.271l4.96-0.03c0.261-4.78,2.84-9.83,9.041-9.83c5.98,0,8.67,5.42,9,9.86h5c-0.09-8.46-4.67-14.69-14-14.77
	C12.314,1.411,7.583,7.911,7.583,16.271z M4.5,21.271v17c0,2.489,0.644,3.229,3.083,3.229h28c2.608,0,2.916-0.699,2.916-3.229v-17
	c0-2.46-0.377-2.771-2.916-2.771h-28C5.173,18.5,4.5,18.941,4.5,21.271z M24.764,28.271c0,1.41-0.91,2.715-2.17,3.136l1.99,5.094h-6
	l1.991-5.094c-1.26-0.421-2.17-1.668-2.17-3.078c0-1.761,1.42-3.209,3.18-3.209C23.344,25.119,24.764,26.511,24.764,28.271z"/>
</svg>
