<?xml version="1.0" encoding="utf-8"?>
<!-- Generator: Adobe Illustrator 16.0.4, SVG Export Plug-In . SVG Version: 6.00 Build 0)  -->
<!DOCTYPE svg PUBLIC "-//W3C//DTD SVG 1.1//EN" "http://www.w3.org/Graphics/SVG/1.1/DTD/svg11.dtd">
<svg version="1.1" id="Layer_1" xmlns="http://www.w3.org/2000/svg" xmlns:xlink="http://www.w3.org/1999/xlink" x="0px" y="0px"
	 width="42px" height="42px" viewBox="0 0 42 42" enable-background="new 0 0 42 42" xml:space="preserve">
<path d="M39.497,16.859c-0.06,4.267-2.154,8.136-5.24,10.613c-4.01,2.982-7.757,3.977-13.757,4.055v2.399
	c0,3.082-1.777,5.756-4.397,6.935c-0.965,0.447-1.92,0.637-2.894,0.641c-1.373-0.016-2.709-0.465-3.709-1.002v-6.934
	c1,0.645,2.271,1.118,3.345,0.815c0.947-0.342,1.655-1.069,1.655-1.948V13.502l6,0.001v11.68c2-0.021,3.354-0.189,4.805-0.506
	c1.899-0.453,3.8-1.16,5.17-2.35c1.682-1.565,2.463-3.428,2.477-5.465c-0.025-3.019-1.557-5.53-3.934-6.986
	C26.324,8.371,23.35,7.86,20.486,7.85c-3.087,0.066-6.121,0.659-8.594,2.16c-2.524,1.596-3.879,4.236-3.9,6.852
	c0.16,1.887,0.655,4.511,1.967,5.708l-4.42,4.641c-1.436-1.403-2.381-3.119-3.002-4.854c-0.61-1.836-1.03-3.663-1.038-5.494
	C1.575,12.409,3.601,8.39,6.794,5.77c4.031-3.078,9.092-4.243,13.704-4.267c5.051,0.084,10.041,1.327,13.758,4.24
	C37.742,8.634,39.465,12.825,39.497,16.859z"/>
</svg>
