<?xml version="1.0" encoding="utf-8"?>
<!-- Generator: Adobe Illustrator 16.0.4, SVG Export Plug-In . SVG Version: 6.00 Build 0)  -->
<!DOCTYPE svg PUBLIC "-//W3C//DTD SVG 1.1//EN" "http://www.w3.org/Graphics/SVG/1.1/DTD/svg11.dtd">
<svg version="1.1" id="Layer_1" xmlns="http://www.w3.org/2000/svg" xmlns:xlink="http://www.w3.org/1999/xlink" x="0px" y="0px"
	 width="42px" height="42px" viewBox="0 0 42 42" enable-background="new 0 0 42 42" xml:space="preserve">
<path d="M19.57,29.24L23.33,33c0,0,15.8-15.769,15.79-15.779c1.851-1.859,1.83-2.68,0-4.51c0.01-0.02-1.511-1.51-1.511-1.51
	L19.57,29.24z M17.86,27.529L35.9,9.491l-3.551-3.55L14.31,23.98L17.86,27.529z M30.85,4.441l-1.5-1.5c-1.91-1.91-2.59-1.931-4.51,0
	L9.05,18.721l3.76,3.759L30.85,4.441z M7.55,20.221L0.5,41.5l21.33-7L7.55,20.221z M6.05,30.859l5.26,5.262l-7.61,2.26L6.05,30.859z
	"/>
</svg>
