<?xml version="1.0" encoding="utf-8"?>
<!-- Generator: Adobe Illustrator 16.0.4, SVG Export Plug-In . SVG Version: 6.00 Build 0)  -->
<!DOCTYPE svg PUBLIC "-//W3C//DTD SVG 1.1//EN" "http://www.w3.org/Graphics/SVG/1.1/DTD/svg11.dtd">
<svg version="1.1" id="Layer_1" xmlns="http://www.w3.org/2000/svg" xmlns:xlink="http://www.w3.org/1999/xlink" x="0px" y="0px"
	 width="42px" height="42px" viewBox="0 0 42 42" enable-background="new 0 0 42 42" xml:space="preserve">
<path d="M30.5,4.45c6,3.727,9.967,10.442,9.999,17.238c0,2.275-0.093,3.812-0.862,6.812H30.5V4.45z M38.739,30.5
	c-3.187,6-9.397,10.268-16.2,10.967c-3.488,0.221-7.039-0.662-10.039-1.893V30.5H38.739L38.739,30.5z M0.5,21.413
	c0.088-7.625,4.462-14.354,10.951-17.69l7.655,6.837L1.225,26.582C0.741,24.816,0.5,23.094,0.5,21.413z M10.5,38.42
	c-4-2.385-6.71-5.84-8.3-9.656l8.3-7.479V38.42z M28.5,16.583L13.367,2.781c2.346-0.787,4.651-1.273,6.947-1.281
	c2.906,0,6.186,0.598,8.186,1.793V16.583z"/>
</svg>
