<?xml version="1.0" encoding="utf-8"?>
<!-- Generator: Adobe Illustrator 16.0.4, SVG Export Plug-In . SVG Version: 6.00 Build 0)  -->
<!DOCTYPE svg PUBLIC "-//W3C//DTD SVG 1.1//EN" "http://www.w3.org/Graphics/SVG/1.1/DTD/svg11.dtd">
<svg version="1.1" id="Layer_1" xmlns="http://www.w3.org/2000/svg" xmlns:xlink="http://www.w3.org/1999/xlink" x="0px" y="0px"
	 width="42px" height="42px" viewBox="0 0 42 42" enable-background="new 0 0 42 42" xml:space="preserve">
<path d="M21,1c11.883,0.223,19.922,9.334,20,20c-0.213,11.364-9.334,19.922-20,20c-1.973-0.008-3.899-0.314-5.658-0.82
	c0.374-0.605,0.748-1.275,1.123-2.01c0.789-1.604,1.149-3.323,1.555-4.967c0.173-0.705,0.418-1.636,0.734-2.787
	c0.346,0.662,0.972,1.238,1.879,1.729c2.367,1.152,5.3,0.771,7.408-0.303c2.956-1.678,4.688-4.286,5.615-7.213
	c1.787-6.789-0.518-13.314-6.674-15.939c-7.424-2.236-15.709,0.555-18.596,7.191C7.125,20.316,7.2,26.012,11.582,27.867
	c0.23,0.088,0.439,0.088,0.626,0c0.412-0.234,0.889-2.271,0.8-2.699c-0.028-0.129-0.13-0.31-0.303-0.539
	c-2.422-3.279-0.946-8.159,1.317-10.605c3.85-3.306,9.84-3.842,13.369-0.691c3.133,3.653,2.42,9.337,0.41,12.958
	c-1.108,1.771-2.6,3.109-4.6,3.134c-2.105-0.048-3.693-1.829-3.153-3.847c0.459-2.364,1.733-4.875,1.771-7.083
	c-0.103-1.837-1.021-3.002-2.721-3.023c-2.713,0.342-3.809,2.879-3.845,5.184c0.087,1.107,0.153,2.235,0.647,3.153
	c-0.576,2.333-1.021,4.212-1.339,5.639c-0.485,2.528-1.438,5.174-1.577,7.623c-0.043,0.807-0.05,1.555-0.021,2.246
	c-7.41-3.515-11.921-10.38-11.965-18.315C1.216,9.457,10.334,1.079,21,1L21,1z"/>
</svg>
