<?xml version="1.0" encoding="utf-8"?>
<!-- Generator: Adobe Illustrator 16.0.4, SVG Export Plug-In . SVG Version: 6.00 Build 0)  -->
<!DOCTYPE svg PUBLIC "-//W3C//DTD SVG 1.1//EN" "http://www.w3.org/Graphics/SVG/1.1/DTD/svg11.dtd">
<svg version="1.1" id="Layer_1" xmlns="http://www.w3.org/2000/svg" xmlns:xlink="http://www.w3.org/1999/xlink" x="0px" y="0px"
	 width="42px" height="42px" viewBox="0 0 42 42" enable-background="new 0 0 42 42" xml:space="preserve">
<path fill-rule="evenodd" clip-rule="evenodd" d="M32.5,24.5v-1.062c0-1.938,0-1.938-1.5-1.938h-8.5v-8.469
	c0-1.48-0.43-1.531-2-1.531h-0.969c-1.48,0-2.031,0.021-2.031,1.531V23.6c0,1.55,0.619,2.9,2.1,2.9h11.369
	C32.479,26.5,32.5,26.02,32.5,24.5z M1,21.6c0,10.82,8.779,19.6,19.6,19.6s19.6-8.779,19.6-19.6S31.42,2,20.6,2S1,10.779,1,21.6z
	 M4.609,21.6c0-8.83,7.16-15.99,15.99-15.99s15.99,7.16,15.99,15.99S29.43,37.59,20.6,37.59S4.609,30.43,4.609,21.6z"/>
</svg>
