<?xml version="1.0" encoding="utf-8"?>
<!-- Generator: Adobe Illustrator 16.0.4, SVG Export Plug-In . SVG Version: 6.00 Build 0)  -->
<!DOCTYPE svg PUBLIC "-//W3C//DTD SVG 1.1//EN" "http://www.w3.org/Graphics/SVG/1.1/DTD/svg11.dtd">
<svg version="1.1" id="Layer_1" xmlns="http://www.w3.org/2000/svg" xmlns:xlink="http://www.w3.org/1999/xlink" x="0px" y="0px"
	 width="42px" height="42px" viewBox="0 0 42 42" enable-background="new 0 0 42 42" xml:space="preserve">
<path d="M41,7.861c-0.268,0.559-0.766,1.265-1.494,2.118c-0.729,0.854-1.627,1.604-2.697,2.253c0.029,0.234,0.052,0.456,0.066,0.661
	c0.115,3.173-0.652,6.464-1.717,9.205c-2.064,5.099-5.227,9.201-9.744,11.987c-4.71,2.676-10.196,3.244-15.25,2.759
	C6.808,36.463,3.501,35.378,1,33.334c4.574,0.541,8.844-0.999,12.219-3.488c-3.75,0.094-6.473-2.592-7.76-5.695
	c0.58,0.15,1.187,0.133,1.739,0.089c0.681-0.064,1.327-0.126,1.962-0.265c-2.391-0.764-4.482-2.168-5.575-4.283
	c-0.64-1.341-0.93-2.616-0.936-4.062c1.12,0.584,2.467,1.154,3.701,1.104c-1.863-1.562-3.357-3.559-3.635-5.85
	C2.541,8.975,3.024,7.231,3.72,5.609c2.786,3.031,5.913,5.528,9.52,7.063c2.467,1,4.927,1.536,7.47,1.545
	c-0.294-2.249-0.066-4.423,1.003-6.268c1.258-1.985,3.094-3.135,5.15-3.709c2.945-0.749,5.817,0.309,7.625,2.339
	c1.951-0.208,3.82-1.065,5.307-1.941c-0.631,1.894-1.861,3.778-3.656,4.68C37.848,9.005,39.478,8.504,41,7.861z"/>
</svg>
