<?xml version="1.0" encoding="utf-8"?>
<!-- Generator: Adobe Illustrator 16.0.4, SVG Export Plug-In . SVG Version: 6.00 Build 0)  -->
<!DOCTYPE svg PUBLIC "-//W3C//DTD SVG 1.1//EN" "http://www.w3.org/Graphics/SVG/1.1/DTD/svg11.dtd">
<svg version="1.1" id="Layer_1" xmlns="http://www.w3.org/2000/svg" xmlns:xlink="http://www.w3.org/1999/xlink" x="0px" y="0px"
	 width="42px" height="42px" viewBox="0 0 42 42" enable-background="new 0 0 42 42" xml:space="preserve">
<path d="M20.976,41C9.808,40.785,1.078,31.629,0.999,20.977C1.216,9.816,10.323,1.079,20.976,1
	c11.163,0.223,19.946,9.311,20.023,19.977C40.779,32.146,31.645,40.922,20.976,41z M20.976,2.417
	c-10.37,0.204-18.533,8.657-18.605,18.56c0.202,10.379,8.703,18.534,18.605,18.605c10.379-0.201,18.534-8.703,18.606-18.605
	C39.387,10.6,30.865,2.49,20.976,2.417z M16.178,37.343l5.119-14.72l5.349,14.399C23.043,38.229,19.636,38.303,16.178,37.343z
	 M12.246,11.332c-1.875,0.254-3.697,0.346-5.486,0.273c3.396-4.855,8.834-7.586,14.217-7.634c4.404,0.083,8.51,1.747,11.521,4.479
	c-1.396-0.104-2.232,0.51-2.834,1.555c-0.875,2.697,0.975,4.695,2.012,6.72c0.981,1.851,0.903,3.954,0.365,5.762l-2.56,8.729
	l-6.173-18.331c0.644-0.06,1.291-0.079,1.875-0.183c0.69-0.154,0.843-0.797,0.365-1.189c-0.152-0.121-0.32,0.016-0.502,0.016
	L21.343,12h-2.812c-0.793,0-3.035-0.917-3.223,0.123c-0.098,0.4,0.202,0.616,0.549,0.679c0.611,0.079,1.312,0.12,1.874,0.179
	l2.697,7.198l-3.749,11.051l-6.217-18.338c0.658-0.058,1.324-0.08,1.92-0.186c0.488-0.062,0.701-0.306,0.641-0.732
	C12.936,11.594,12.598,11.335,12.246,11.332z M5.388,14.166l8.183,22.125c-2.952-1.455-5.286-3.596-6.948-6.148
	C3.583,25.291,3.263,19.137,5.388,14.166L5.388,14.166z M37.365,25.525c-1.343,4.387-4.087,8.021-7.885,10.217
	c0.183-0.485,0.472-1.31,0.867-2.468l4.756-13.806c0.457-1.342,0.775-2.834,0.959-4.48c0.062-0.673,0.064-1.352-0.045-1.965
	C37.965,17.225,38.518,21.386,37.365,25.525L37.365,25.525z"/>
</svg>
