<?xml version="1.0" encoding="utf-8"?>
<!-- Generator: Adobe Illustrator 16.0.4, SVG Export Plug-In . SVG Version: 6.00 Build 0)  -->
<!DOCTYPE svg PUBLIC "-//W3C//DTD SVG 1.1//EN" "http://www.w3.org/Graphics/SVG/1.1/DTD/svg11.dtd">
<svg version="1.1" id="Layer_1" xmlns="http://www.w3.org/2000/svg" xmlns:xlink="http://www.w3.org/1999/xlink" x="0px" y="0px"
	 width="20px" height="20px" viewBox="0 0 20 20" enable-background="new 0 0 20 20" xml:space="preserve">
<path d="M9.75,7.381c1.609,0.2,3.7,2.06,3.87,3.762c0,0,4.25-4.302,4.239-4.312c0.881-0.891,0.851-1.25-0.062-2.08l-1.84-1.67
	c-0.88-0.8-1.21-0.77-2.04,0.061L9.75,7.381z M11.98,11.162c-0.142-0.61-1.32-2.041-2.602-2.261c-3.19-0.83-6.25,2.671-6.069,5.22
	c0.29,2.08-2.41,2.381-2.81,2.471c2.66,0.939,3.8,1.16,6.26,0.631C8.92,16.762,13.08,14.621,11.98,11.162z"/>
</svg>
