<?xml version="1.0" encoding="utf-8"?>
<!-- Generator: Adobe Illustrator 16.0.4, SVG Export Plug-In . SVG Version: 6.00 Build 0)  -->
<!DOCTYPE svg PUBLIC "-//W3C//DTD SVG 1.1//EN" "http://www.w3.org/Graphics/SVG/1.1/DTD/svg11.dtd">
<svg version="1.1" id="Layer_1" xmlns="http://www.w3.org/2000/svg" xmlns:xlink="http://www.w3.org/1999/xlink" x="0px" y="0px"
	 width="20px" height="20px" viewBox="0 0 20 20" enable-background="new 0 0 20 20" xml:space="preserve">
<path d="M11.439,12.311L7.52,16.2C6.991,16.77,6.061,17.04,6.84,18c0.66,0.8,1.39,0.08,1.881-0.439l4-3.891L11.439,12.311z
	 M10.5,10.98V9.38V4.5c0-2.49-0.51-3-3-3h-4c-2.439,0-3,0.54-3,3v10c0,2.52,0.5,3,3,3h2v-1h-1v-1h2l1-1h-5v-11h6l0.01,9.7
	L10.5,10.98z M14.189,8.38c0,0-2.279-0.6-3.689,1c0.76,0,1.67-0.36,2.5,1.09l-1,1.15l1.221,1.319l1.09-1l0.932,1.051l-0.803,0.74
	l1.09,1.1l2.853-2.85l-1.29-1.393l-1,1.07l-1.09-1.07l0.777-0.93L14.189,8.38z"/>
</svg>
