<?xml version="1.0" encoding="utf-8"?>
<!-- Generator: Adobe Illustrator 16.0.4, SVG Export Plug-In . SVG Version: 6.00 Build 0)  -->
<!DOCTYPE svg PUBLIC "-//W3C//DTD SVG 1.1//EN" "http://www.w3.org/Graphics/SVG/1.1/DTD/svg11.dtd">
<svg version="1.1" id="Layer_1" xmlns="http://www.w3.org/2000/svg" xmlns:xlink="http://www.w3.org/1999/xlink" x="0px" y="0px"
	 width="20px" height="20px" viewBox="0 0 20 20" enable-background="new 0 0 20 20" xml:space="preserve">
<path d="M7.911,12.04c-0.01-0.011-0.05-0.011-0.11,0.011c0.03-0.061,0.04-0.091,0.03-0.101c-0.36-0.47-0.74-1.091-1.05-1.479
	C6.151,9.65,5.821,8.48,5.741,8.4c0.89-0.61,2.63-1.38,2.73-2.48c0.12-1.42-2.33-4.39-2.8-4.42c-1.28,0.02-3.62,2.15-3.91,2.8
	c-0.51,1.34-0.26,2.58,0.64,4.38c1.13,2.679,5.33,7.759,7.741,9.349c1.59,1.201,2.76,1.671,4.149,1.391
	c0.641-0.119,2.97-2,3.21-3.279c0.05-0.471-2.66-3.608-4.062-3.729c-1.09-0.102-2.129,1.51-2.879,2.29
	c-0.069-0.091-0.709-0.58-1.399-1.36C8.831,12.971,8.301,12.471,7.911,12.04z"/>
</svg>
