<?xml version="1.0" encoding="utf-8"?>
<!-- Generator: Adobe Illustrator 16.0.4, SVG Export Plug-In . SVG Version: 6.00 Build 0)  -->
<!DOCTYPE svg PUBLIC "-//W3C//DTD SVG 1.1//EN" "http://www.w3.org/Graphics/SVG/1.1/DTD/svg11.dtd">
<svg version="1.1" id="Layer_1" xmlns="http://www.w3.org/2000/svg" xmlns:xlink="http://www.w3.org/1999/xlink" x="0px" y="0px"
	 width="20px" height="20px" viewBox="0 0 20 20" enable-background="new 0 0 20 20" xml:space="preserve">
<path d="M6.88,11.529c0,1.471,1.14,2.41,2.649,2.41c1.511,0,2.532-0.939,2.532-2.41c0-1.469-0.881-2.649-2.562-2.649
	C7.82,8.88,6.88,10.061,6.88,11.529z M2.5,17.5h14c1.5,0,2-0.439,2-2v-9c0-1.14-0.82-2-2-2h-4c0-0.561-0.439-1-1-1h-4
	c-0.471,0-1,0.471-1,1h-4c-1.34,0-2,0.61-2,2v8.689C0.5,16.91,0.99,17.5,2.5,17.5z M5.29,11.41c0-2.26,1.88-4.1,4.21-4.1
	s4.21,1.84,4.21,4.1c0,2.26-1.88,4.1-4.21,4.1S5.29,13.67,5.29,11.41z"/>
</svg>
