<?xml version="1.0" encoding="utf-8"?>
<!-- Generator: Adobe Illustrator 16.0.4, SVG Export Plug-In . SVG Version: 6.00 Build 0)  -->
<!DOCTYPE svg PUBLIC "-//W3C//DTD SVG 1.1//EN" "http://www.w3.org/Graphics/SVG/1.1/DTD/svg11.dtd">
<svg version="1.1" id="Layer_1" xmlns="http://www.w3.org/2000/svg" xmlns:xlink="http://www.w3.org/1999/xlink" x="0px" y="0px"
	 width="20px" height="20px" viewBox="0 0 20 20" enable-background="new 0 0 20 20" xml:space="preserve">
<path d="M18.501,6.32c0-0.67-0.08-0.82-0.778-0.82H5.501l-0.66-2.11c-0.17-0.67-0.6-0.89-1.31-0.89h-2.03c-0.67,0-1,0.41-1,1.11
	c-0.02,0.56,0.33,0.89,1,0.89l1.64,0.02l1.65,8.06c0.16,0.47,0.59,0.88,1.35,0.9h9.65c0.779,0,1.148-0.16,1.352-0.9L18.501,6.32z
	 M15.501,11.5h-9l-1-4h11L15.501,11.5z M5.581,16.5c0,1.061,0.86,1.92,1.92,1.92s1.92-0.859,1.92-1.92s-0.86-1.92-1.92-1.92
	S5.581,15.439,5.581,16.5z M11.581,16.5c0,1.061,0.858,1.92,1.92,1.92s1.92-0.859,1.92-1.92s-0.858-1.92-1.92-1.92
	S11.581,15.439,11.581,16.5z"/>
</svg>
