<?xml version="1.0" encoding="utf-8"?>
<!-- Generator: Adobe Illustrator 16.0.4, SVG Export Plug-In . SVG Version: 6.00 Build 0)  -->
<!DOCTYPE svg PUBLIC "-//W3C//DTD SVG 1.1//EN" "http://www.w3.org/Graphics/SVG/1.1/DTD/svg11.dtd">
<svg version="1.1" id="Layer_1" xmlns="http://www.w3.org/2000/svg" xmlns:xlink="http://www.w3.org/1999/xlink" x="0px" y="0px"
	 width="20px" height="20px" viewBox="0 0 20 20" enable-background="new 0 0 20 20" xml:space="preserve">
<path d="M5.5,14.5v4c0.141,0.38,0.689,0.471,0.689,0.471C6.02,19.109,10.5,14.5,10.5,14.5h6c1.529,0,2-0.561,2-2v-9
	c0-1.47-0.561-2-2-2h-14c-1.41,0-2,0.561-2,2v9c0,1.439,0.561,2,2,2H5.5z M2.439,10C2.439,9.141,3.14,8.44,4,8.44
	S5.561,9.14,5.561,10c0,0.859-0.701,1.561-1.561,1.561S2.439,10.859,2.439,10z M7.439,10C7.439,9.141,8.14,8.44,9,8.44
	s1.561,0.7,1.561,1.56c0,0.859-0.701,1.561-1.561,1.561S7.439,10.859,7.439,10z M12.439,10c0-0.859,0.701-1.56,1.561-1.56
	s1.561,0.7,1.561,1.56c0,0.859-0.701,1.561-1.561,1.561S12.439,10.859,12.439,10z"/>
</svg>
