<?xml version="1.0" encoding="utf-8"?>
<!-- Generator: Adobe Illustrator 16.0.4, SVG Export Plug-In . SVG Version: 6.00 Build 0)  -->
<!DOCTYPE svg PUBLIC "-//W3C//DTD SVG 1.1//EN" "http://www.w3.org/Graphics/SVG/1.1/DTD/svg11.dtd">
<svg version="1.1" id="Layer_1" xmlns="http://www.w3.org/2000/svg" xmlns:xlink="http://www.w3.org/1999/xlink" x="0px" y="0px"
	 width="20px" height="20px" viewBox="0 0 20 20" enable-background="new 0 0 20 20" xml:space="preserve">
<path d="M18.5,15.17v-8c0,0-8.189,5.641-8.99,5.93C8.73,12.82,0.5,7.17,0.5,7.17v8c0,1.109,0.24,1.33,1.35,1.33h15.3
	C18.29,16.5,18.5,16.311,18.5,15.17z M18.49,5.6c0-0.81-0.24-1.1-1.34-1.1H1.85C0.721,4.5,0.5,4.85,0.5,5.66l0.01,0.12
	c0,0,8.141,5.531,9,5.83c0.92-0.35,8.99-5.948,8.99-5.948L18.49,5.6z"/>
</svg>
