<?xml version="1.0" encoding="utf-8"?>
<!-- Generator: Adobe Illustrator 16.0.4, SVG Export Plug-In . SVG Version: 6.00 Build 0)  -->
<!DOCTYPE svg PUBLIC "-//W3C//DTD SVG 1.1//EN" "http://www.w3.org/Graphics/SVG/1.1/DTD/svg11.dtd">
<svg version="1.1" id="Layer_1" xmlns="http://www.w3.org/2000/svg" xmlns:xlink="http://www.w3.org/1999/xlink" x="0px" y="0px"
	 width="20px" height="20px" viewBox="0 0 20 20" enable-background="new 0 0 20 20" xml:space="preserve">
<path d="M5.52,4.83c-0.23,0.66-0.31,1.38-0.1,2.01C5.17,7.12,4.98,7.43,4.84,7.79c-0.369,1.149-0.279,2.63,0.52,3.521
	c0.291,0.312,0.67,0.562,1.15,0.76c0.48,0.199,1.09,0.33,1.85,0.382c-0.51,0.237-0.86,0.379-0.99,0.907
	c-0.56,0.371-1.25,0.281-1.75-0.129c-0.39-0.279-0.57-0.791-1.011-0.979C4.59,12.221,4.5,12.2,4.359,12.189
	C4.21,12.17,4.1,12.21,4.02,12.311c-0.039,0.039-0.039,0.08,0.01,0.129c0.33,0.271,0.65,0.553,0.83,0.9
	c0.18,0.37,0.361,0.641,0.56,0.811c0.53,0.358,1.24,0.539,1.87,0.32c-0.069,0.439,0.12,1.119-0.02,1.521
	C7.21,16.1,7.13,16.189,7.03,16.27c-0.09,0.09-0.369,0.211-0.319,0.34C6.74,16.67,6.84,16.71,7,16.73
	c0.359-0.01,0.721-0.16,0.939-0.451c0.07-0.1,0.11-0.229,0.11-0.399V14.2c0-0.19,0.04-0.33,0.12-0.41s0.17-0.14,0.27-0.17v2.22
	c0,0.189-0.02,0.36-0.049,0.5c-0.031,0.131-0.07,0.23-0.091,0.28c-0.069,0.11-0.19,0.21-0.19,0.33c0,0.04,0.031,0.069,0.07,0.069
	c0.36-0.012,0.78-0.222,0.93-0.521c0.121-0.25,0.17-0.51,0.17-0.777V13.54H9.74v2.181c0,0.271,0.06,0.529,0.18,0.779
	c0.13,0.25,0.33,0.4,0.62,0.471c0.149,0.039,0.25,0.062,0.31,0.049c0.051,0,0.08-0.027,0.07-0.067c-0.029-0.12-0.1-0.229-0.18-0.33
	C10.65,16.5,10.6,16.24,10.6,15.84v-2.22c0.103,0.03,0.19,0.09,0.28,0.17c0.091,0.08,0.13,0.22,0.13,0.41v1.68
	c0,0.17,0.04,0.3,0.11,0.399c0.229,0.301,0.58,0.441,0.94,0.451c0.17-0.021,0.26-0.062,0.289-0.121
	c0.028-0.062,0.01-0.109-0.062-0.149s-0.16-0.101-0.263-0.19c-0.1-0.08-0.18-0.17-0.237-0.277c-0.062-0.71,0-1.473-0.05-2.182
	c-0.102-0.778-0.4-1.041-1-1.34c0.72-0.051,1.3-0.181,1.76-0.391c1.38-0.67,1.76-1.7,1.76-3.08C14.24,8.109,13.98,7.33,13.4,6.74
	c0.08-0.32,0.1-0.641,0.07-0.99c-0.031-0.34-0.111-0.65-0.223-0.92c-0.5,0.029-0.932,0.13-1.271,0.311
	c-0.34,0.17-0.59,0.33-0.738,0.449c-1.222-0.279-2.521-0.279-3.68,0.04C6.96,5.141,6.221,4.87,5.52,4.83z M9.5,2.48
	c4.43,0,8.02,3.59,8.02,8.02c0,4.43-3.59,8.02-8.02,8.02c-4.43,0-8.02-3.59-8.02-8.02C1.48,6.07,5.07,2.48,9.5,2.48z M9.5,1.5
	c-4.971,0-9,4.03-9,9c0,4.971,4.029,9,9,9c4.971,0,9-4.029,9-9C18.5,5.53,14.471,1.5,9.5,1.5z"/>
</svg>
