<?xml version="1.0" encoding="utf-8"?>
<!-- Generator: Adobe Illustrator 16.0.4, SVG Export Plug-In . SVG Version: 6.00 Build 0)  -->
<!DOCTYPE svg PUBLIC "-//W3C//DTD SVG 1.1//EN" "http://www.w3.org/Graphics/SVG/1.1/DTD/svg11.dtd">
<svg version="1.1" id="Layer_1" xmlns="http://www.w3.org/2000/svg" xmlns:xlink="http://www.w3.org/1999/xlink" x="0px" y="0px"
	 width="20px" height="20px" viewBox="0 0 20 20" enable-background="new 0 0 20 20" xml:space="preserve">
<path d="M13.88,18h0.341c2.239-0.029,4.369-0.27,4.75-0.62c0.09-0.76,0.199-1.13-3.41-2.739c-0.511-0.271-0.24-1.32-0.24-1.32
	c1.091-0.771,1.83-2.561,1.83-4c0-2.471-1.18-3.641-2.93-3.76H13.88c-1.75,0.119-2.93,1.289-2.93,3.76c0,1.439,0.739,3.229,1.829,4
	c0,0,0.271,1.051-0.239,1.32c-3.61,1.609-3.5,1.979-3.41,2.739C9.51,17.73,11.641,17.971,13.88,18z M5.88,14h0.341
	c2.239-0.029,4.369-0.27,4.75-0.62c0.09-0.76,0.199-1.13-3.41-2.739C7.05,10.37,7.32,9.32,7.32,9.32c1.09-0.771,1.83-2.561,1.83-4
	c0-2.471-1.18-3.641-2.93-3.76H5.88C4.13,1.68,2.95,2.85,2.95,5.32c0,1.439,0.739,3.229,1.829,4c0,0,0.271,1.05-0.239,1.321
	c-3.61,1.608-3.5,1.979-3.41,2.738C1.51,13.73,3.641,13.971,5.88,14z"/>
</svg>
