<?xml version="1.0" encoding="utf-8"?>
<!-- Generator: Adobe Illustrator 16.0.4, SVG Export Plug-In . SVG Version: 6.00 Build 0)  -->
<!DOCTYPE svg PUBLIC "-//W3C//DTD SVG 1.1//EN" "http://www.w3.org/Graphics/SVG/1.1/DTD/svg11.dtd">
<svg version="1.1" id="Layer_1" xmlns="http://www.w3.org/2000/svg" xmlns:xlink="http://www.w3.org/1999/xlink" x="0px" y="0px"
	 width="20px" height="20px" viewBox="0 0 20 20" enable-background="new 0 0 20 20" xml:space="preserve">
<path d="M4.109,10.5c0,2.971,2.42,5.391,5.391,5.391c2.971,0,5.391-2.42,5.391-5.391c0-0.47,0.109-1.54,0-1.97L16.5,8.5v8
	c0,0.891-1.109,1-2,1h-11c-0.891,0-1-0.109-1-1v-8l1.8,0.03C4.189,8.96,4.109,10.03,4.109,10.5z M0.5,3.83v13.34
	c0,1.51,0.82,2.33,2.33,2.33h13.34c1.51,0,2.33-0.82,2.33-2.33V3.83c0-1.51-0.82-2.33-2.33-2.33H2.83C1.32,1.5,0.5,2.32,0.5,3.83z
	 M5.79,10.51c0-1.97,1.76-3.67,3.739-3.67c1.971,0,3.641,1.7,3.641,3.67c0,1.98-1.74,3.67-3.71,3.67S5.79,12.49,5.79,10.51z
	 M13.5,4.5c0-0.641,0.391-1,1-1h1c0.74,0,1,0.391,1,1v1c0,0.58-0.221,1-1,1h-1c-0.67,0-1-0.42-1-1V4.5z"/>
</svg>
