<?xml version="1.0" encoding="utf-8"?>
<!-- Generator: Adobe Illustrator 16.0.4, SVG Export Plug-In . SVG Version: 6.00 Build 0)  -->
<!DOCTYPE svg PUBLIC "-//W3C//DTD SVG 1.1//EN" "http://www.w3.org/Graphics/SVG/1.1/DTD/svg11.dtd">
<svg version="1.1" id="Layer_1" xmlns="http://www.w3.org/2000/svg" xmlns:xlink="http://www.w3.org/1999/xlink" x="0px" y="0px"
	 width="20px" height="20px" viewBox="0 0 20 20" enable-background="new 0 0 20 20" xml:space="preserve">
<path d="M15.5,13.5c-0.02-0.01-2.641-3.01-3.01-3.01c-0.25,0-1.99,2.01-1.99,2.01c-0.87-0.971-2.44-4-3-4c-0.58,0-2.61,3.109-4,5
	H15.5z M12.23,7.5c0,0.7,0.568,1.27,1.27,1.27s1.27-0.57,1.27-1.27S14.2,6.23,13.5,6.23S12.23,6.8,12.23,7.5z M0.5,4.5v11
	c0,1.45,0.49,2,2,2h14c1.49,0,2-0.471,2-2v-11c0-1.47-0.45-2-2-2L2.46,2.51C1.02,2.51,0.5,2.97,0.5,4.5z M2.5,4.5h14v11h-14V4.5z"/>
</svg>
