<?xml version="1.0" encoding="utf-8"?>
<!-- Generator: Adobe Illustrator 16.0.4, SVG Export Plug-In . SVG Version: 6.00 Build 0)  -->
<!DOCTYPE svg PUBLIC "-//W3C//DTD SVG 1.1//EN" "http://www.w3.org/Graphics/SVG/1.1/DTD/svg11.dtd">
<svg version="1.1" id="Layer_1" xmlns="http://www.w3.org/2000/svg" xmlns:xlink="http://www.w3.org/1999/xlink" x="0px" y="0px"
	 width="20px" height="20px" viewBox="0 0 20 20" enable-background="new 0 0 20 20" xml:space="preserve">
<path d="M3.5,8.5h2v7h-2V8.5z M11.68,8.45c0.74,0,1.53,0.3,2.1,0.89C14.38,10,14.5,10.57,14.5,11.5v4h-2v-3
	c0-1.609-0.5-1.971-1.48-2c-0.58,0-1,0.279-1.27,0.84c-0.08,0.18-0.24,0.61-0.24,0.82L9.5,15.5h-2v-7h2v1
	c0.18-0.29,0.42-0.48,0.73-0.71C10.65,8.5,11.13,8.46,11.68,8.45z M4.52,5.08c0.67,0.01,1.34,0.54,1.371,1.34
	C5.9,7.141,5.279,7.76,4.5,7.76H4.48c-0.66,0-1.311-0.539-1.34-1.34C3.15,5.721,3.74,5.1,4.52,5.08z M0.5,1.5v17h17v-17H0.5z"/>
</svg>
