<?xml version="1.0" encoding="utf-8"?>
<!-- Generator: Adobe Illustrator 16.0.4, SVG Export Plug-In . SVG Version: 6.00 Build 0)  -->
<!DOCTYPE svg PUBLIC "-//W3C//DTD SVG 1.1//EN" "http://www.w3.org/Graphics/SVG/1.1/DTD/svg11.dtd">
<svg version="1.1" id="Layer_1" xmlns="http://www.w3.org/2000/svg" xmlns:xlink="http://www.w3.org/1999/xlink" x="0px" y="0px"
	 width="20px" height="20px" viewBox="0 0 20 20" enable-background="new 0 0 20 20" xml:space="preserve">
<path d="M1.5,11.41v6.027c0,1.34,0.68,2,2,2h11c1.32,0,2-0.66,2-2v-6.021c0-1.331-0.742-1.899-2.062-1.899h-11
	C2.118,9.521,1.5,10.068,1.5,11.41z M8.48,15.721C7.67,15.441,7.029,14.92,7.029,14c0-1.16,0.83-1.92,1.971-1.92
	s1.91,0.75,1.91,1.908c0,0.9-0.561,1.41-1.35,1.699l0.939,1.75h-3L8.48,15.721z M2.779,8.498H5.5c0.12-2.1,0.7-4.708,3.43-4.708
	c2.64,0,3.399,2.716,3.548,4.667l2.649,0.033c-0.04-3.71-1.948-6.949-6.069-6.99C4.98,1.458,2.779,4.837,2.779,8.498z"/>
</svg>
