<?xml version="1.0" encoding="utf-8"?>
<!-- Generator: Adobe Illustrator 16.0.4, SVG Export Plug-In . SVG Version: 6.00 Build 0)  -->
<!DOCTYPE svg PUBLIC "-//W3C//DTD SVG 1.1//EN" "http://www.w3.org/Graphics/SVG/1.1/DTD/svg11.dtd">
<svg version="1.1" id="Layer_1" xmlns="http://www.w3.org/2000/svg" xmlns:xlink="http://www.w3.org/1999/xlink" x="0px" y="0px"
	 width="20px" height="20px" viewBox="0 0 20 20" enable-background="new 0 0 20 20" xml:space="preserve">
<path d="M17.5,8.41c-0.029,1.92-0.91,3.66-2.29,4.779c-1.8,1.34-3.45,1.939-5.55,1.971v0.9c0,1.39-0.75,2.778-1.92,3.31
	c-0.43,0.21-0.85,0.29-1.29,0.29c-0.61,0-1.54-0.36-1.921-0.6v-3.15C4.91,16.2,5.65,16.6,6.13,16.46
	c0.431-0.16,0.39-0.45,0.39-0.851L6.5,7.5h3v5c0.76-0.01,1.01-0.17,1.66-0.311c0.85-0.209,1.72-0.779,2.33-1.319
	c0.75-0.7,1.09-1.54,1.09-2.46c-0.01-1.36-0.7-2.49-1.76-3.14C11.609,4.59,10.279,4.36,9,4.36C7.62,4.39,6.26,4.65,5.15,5.33
	c-1.13,0.72-1.73,1.9-1.74,3.08c0.07,0.85,0.29,2.03,0.88,2.57l-1.979,2.09c-0.641-0.631-1.07-1.41-1.351-2.19
	C0.689,10.06,0.5,9.24,0.5,8.41c0.029-2,0.939-3.81,2.37-4.99C4.67,2.03,6.939,1.51,9,1.5c2.26,0.04,4.49,0.6,6.16,1.91
	C16.71,4.71,17.49,6.6,17.5,8.41z"/>
</svg>
