<?xml version="1.0" encoding="utf-8"?>
<!-- Generator: Adobe Illustrator 16.0.4, SVG Export Plug-In . SVG Version: 6.00 Build 0)  -->
<!DOCTYPE svg PUBLIC "-//W3C//DTD SVG 1.1//EN" "http://www.w3.org/Graphics/SVG/1.1/DTD/svg11.dtd">
<svg version="1.1" id="Layer_1" xmlns="http://www.w3.org/2000/svg" xmlns:xlink="http://www.w3.org/1999/xlink" x="0px" y="0px"
	 width="20px" height="20px" viewBox="0 0 20 20" enable-background="new 0 0 20 20" xml:space="preserve">
<path d="M9.35,14.148l1.53,1.471c0,0,7-7.04,7-7.05c0.83-0.83,0.82-1.2,0-2.03l-0.58-0.37L9.35,14.148z M8.16,12.959l8.109-8.13
	l-1.42-1.2l-7.959,7.99L8.16,12.959z M13.891,2.449l-0.41-0.3c-0.859-0.86-1.16-0.87-2.029,0l-6.94,6.97l1.43,1.32L13.891,2.449z
	 M3.67,9.919l-3.17,9.58l9.6-3.149L3.67,9.919z M3,14.709l2.37,2.37L1.94,18.1L3,14.709z"/>
</svg>
