<?xml version="1.0" encoding="utf-8"?>
<!-- Generator: Adobe Illustrator 16.0.4, SVG Export Plug-In . SVG Version: 6.00 Build 0)  -->
<!DOCTYPE svg PUBLIC "-//W3C//DTD SVG 1.1//EN" "http://www.w3.org/Graphics/SVG/1.1/DTD/svg11.dtd">
<svg version="1.1" id="Layer_1" xmlns="http://www.w3.org/2000/svg" xmlns:xlink="http://www.w3.org/1999/xlink" x="0px" y="0px"
	 width="20px" height="20px" viewBox="0 0 20 20" enable-background="new 0 0 20 20" xml:space="preserve">
<path d="M10,1c5.35,0.1,8.971,4.2,9,9c-0.1,5.109-4.2,8.971-9,9c-0.891,0-1.75-0.141-2.55-0.37c0.17-0.271,0.34-0.569,0.51-0.899
	c0.351-0.729,0.521-1.5,0.7-2.239c0.08-0.32,0.189-0.73,0.33-1.25c0.15,0.3,0.439,0.55,0.84,0.778c1.07,0.512,2.391,0.34,3.34-0.14
	c1.33-0.76,2.109-1.93,2.53-3.25c0.8-3.05-0.24-5.989-3.011-7.17C9.35,3.45,5.62,4.71,4.32,7.7c-0.56,1.989-0.53,4.56,1.44,5.39
	c0.11,0.04,0.2,0.04,0.28,0c0.19-0.109,0.399-1.02,0.36-1.21c-0.01-0.06-0.051-0.14-0.131-0.25c-1.09-1.47-0.43-3.67,0.59-4.771
	C8.59,5.37,11.29,5.13,12.88,6.55c1.41,1.64,1.091,4.2,0.181,5.83c-0.5,0.8-1.17,1.399-2.069,1.41
	c-0.95-0.021-1.66-0.819-1.42-1.729C9.779,11,10.35,9.87,10.37,8.87c-0.05-0.82-0.46-1.35-1.229-1.36
	C7.92,7.67,7.43,8.811,7.41,9.84c0.04,0.5,0.07,1.01,0.3,1.42c-0.26,1.051-0.46,1.9-0.61,2.54c-0.209,1.14-0.64,2.33-0.709,3.431
	C6.37,17.59,6.37,17.93,6.38,18.24C3.05,16.66,1.02,13.57,1,10C1.1,4.811,5.2,1.03,10,1z"/>
</svg>
