<?xml version="1.0" encoding="utf-8"?>
<!-- Generator: Adobe Illustrator 16.0.4, SVG Export Plug-In . SVG Version: 6.00 Build 0)  -->
<!DOCTYPE svg PUBLIC "-//W3C//DTD SVG 1.1//EN" "http://www.w3.org/Graphics/SVG/1.1/DTD/svg11.dtd">
<svg version="1.1" id="Layer_1" xmlns="http://www.w3.org/2000/svg" xmlns:xlink="http://www.w3.org/1999/xlink" x="0px" y="0px"
	 width="20px" height="20px" viewBox="0 0 20 20" enable-background="new 0 0 20 20" xml:space="preserve">
<path d="M10.5,3.5c0-0.53-0.5-1-1-1h-8c-0.54,0-1,0.46-1,1v14c0,0.529,0.5,1,1,1h7.59l-3-3H2.5v-11h6v7.721l2-2V3.5z M5.5,17.5h-1
	v-1h1V17.5z M12.45,15.029c0,0.311,0.25,0.57,0.56,0.57c0.301,0,0.551-0.262,0.551-0.57c0-0.312-0.25-0.562-0.551-0.562
	C12.7,14.471,12.45,14.721,12.45,15.029z M13.561,18.38c1.819-0.409,4.66-2.94,4.66-2.94s-2-3.5-4.811-3.688
	c-0.16-0.01-0.71-0.021-0.811-0.021C9.91,11.88,7.72,15.541,7.72,15.541s2.379,2.46,4.59,2.84
	C12.57,18.43,13.41,18.439,13.561,18.38z M10.311,15.061c0-1.41,1.218-2.621,2.689-2.621s2.63,1.211,2.63,2.621
	s-1.25,2.67-2.71,2.67C11.45,17.73,10.311,16.471,10.311,15.061z"/>
</svg>
