<?xml version="1.0" encoding="utf-8"?>
<!-- Generator: Adobe Illustrator 16.0.4, SVG Export Plug-In . SVG Version: 6.00 Build 0)  -->
<!DOCTYPE svg PUBLIC "-//W3C//DTD SVG 1.1//EN" "http://www.w3.org/Graphics/SVG/1.1/DTD/svg11.dtd">
<svg version="1.1" id="Layer_1" xmlns="http://www.w3.org/2000/svg" xmlns:xlink="http://www.w3.org/1999/xlink" x="0px" y="0px"
	 width="20px" height="20px" viewBox="0 0 20 20" enable-background="new 0 0 20 20" xml:space="preserve">
<path d="M12.5,8.5h6v-6l-1.979,2.01c-0.148-0.18-0.312-0.35-0.479-0.52c-3.33-3.32-8.72-3.32-12.05,0c-3.32,3.32-3.32,8.699,0,12.02
	c3.33,3.32,8.72,3.32,12.05,0c0,0,1.108-1.3,1.479-2l-1.84-0.81c-0.271,0.47-1.062,1.39-1.062,1.39c-2.54,2.54-6.67,2.54-9.21,0
	c-2.54-2.529-2.54-6.65,0-9.18c2.55-2.54,6.67-2.54,9.21,0c0.17,0.16,0.33,0.34,0.47,0.52L12.5,8.5z"/>
</svg>
