<?xml version="1.0" encoding="utf-8"?>
<!-- Generator: Adobe Illustrator 16.0.4, SVG Export Plug-In . SVG Version: 6.00 Build 0)  -->
<!DOCTYPE svg PUBLIC "-//W3C//DTD SVG 1.1//EN" "http://www.w3.org/Graphics/SVG/1.1/DTD/svg11.dtd">
<svg version="1.1" id="Layer_1" xmlns="http://www.w3.org/2000/svg" xmlns:xlink="http://www.w3.org/1999/xlink" x="0px" y="0px"
	 width="20px" height="20px" viewBox="0 0 20 20" enable-background="new 0 0 20 20" xml:space="preserve">
<path d="M4.11,3.5C1.8,3.5,0.5,4.86,0.5,7.17v6.74c0,2.26,1.34,3.59,3.61,3.59h10.68c2.37,0,3.71-1.3,3.71-3.67V7.17
	c0-2.36-1.359-3.67-3.609-3.67H4.11z M3.07,4.5h12.77c0.41,0,1.67,1,1.67,1.67v8.66c0,0.609-1.01,1.67-1.63,1.67H3.13
	c-0.69,0-1.63-0.88-1.63-1.62V6.21C1.5,5.62,2.62,4.5,3.07,4.5z"/>
</svg>
