<?xml version="1.0" encoding="utf-8"?>
<!-- Generator: Adobe Illustrator 16.0.4, SVG Export Plug-In . SVG Version: 6.00 Build 0)  -->
<!DOCTYPE svg PUBLIC "-//W3C//DTD SVG 1.1//EN" "http://www.w3.org/Graphics/SVG/1.1/DTD/svg11.dtd">
<svg version="1.1" id="Layer_1" xmlns="http://www.w3.org/2000/svg" xmlns:xlink="http://www.w3.org/1999/xlink" x="0px" y="0px"
	 width="20px" height="20px" viewBox="0 0 20 20" enable-background="new 0 0 20 20" xml:space="preserve">
<path d="M5.503,5.503v-2c0-1.109,0.1-1-1-1h-2c-1.061,0-1-0.08-1,1v2c0,1.1-0.109,1,1,1h2C5.612,6.503,5.503,6.603,5.503,5.503z
	 M5.503,11.503v-2c0-1.109,0.1-1-1-1h-2c-1.061,0-1-0.08-1,1v2c0,1.101-0.109,1,1,1h2C5.612,12.503,5.503,12.604,5.503,11.503z
	 M5.503,17.503v-2c0-1.108,0.1-1-1-1h-2c-1.061,0-1-0.08-1,1v2c0,1.101-0.109,1,1,1h2C5.612,18.503,5.503,18.604,5.503,17.503z
	 M11.503,5.503v-2c0-1.109,0.101-1-1-1h-2c-1.061,0-1-0.08-1,1v2c0,1.1-0.109,1,1,1h2C11.611,6.503,11.503,6.603,11.503,5.503z
	 M11.503,11.503v-2c0-1.109,0.101-1-1-1h-2c-1.061,0-1-0.08-1,1v2c0,1.101-0.109,1,1,1h2C11.611,12.503,11.503,12.604,11.503,11.503
	z M11.503,17.503v-2c0-1.108,0.101-1-1-1h-2c-1.061,0-1-0.08-1,1v2c0,1.101-0.109,1,1,1h2
	C11.611,18.503,11.503,18.604,11.503,17.503z M17.503,5.503v-2c0-1.109,0.101-1-1-1h-2c-1.062,0-1-0.08-1,1v2c0,1.1-0.108,1,1,1h2
	C17.611,6.503,17.503,6.603,17.503,5.503z M17.503,11.503v-2c0-1.109,0.101-1-1-1h-2c-1.062,0-1-0.08-1,1v2c0,1.101-0.108,1,1,1h2
	C17.611,12.503,17.503,12.604,17.503,11.503z M17.503,17.503v-2c0-1.108,0.101-1-1-1h-2c-1.062,0-1-0.08-1,1v2c0,1.101-0.108,1,1,1
	h2C17.611,18.503,17.503,18.604,17.503,17.503z"/>
</svg>
