<?xml version="1.0" encoding="utf-8"?>
<!-- Generator: Adobe Illustrator 16.0.4, SVG Export Plug-In . SVG Version: 6.00 Build 0)  -->
<!DOCTYPE svg PUBLIC "-//W3C//DTD SVG 1.1//EN" "http://www.w3.org/Graphics/SVG/1.1/DTD/svg11.dtd">
<svg version="1.1" id="Layer_1" xmlns="http://www.w3.org/2000/svg" xmlns:xlink="http://www.w3.org/1999/xlink" x="0px" y="0px"
	 width="20px" height="20px" viewBox="0 0 20 20" enable-background="new 0 0 20 20" xml:space="preserve">
<path d="M9.5,12.721V8.5h3v-2h-3v-3h-3c-0.12,1.45,0.2,3-2,3v2h2v5c0,0.76,0.52,1.721,1.13,2.07c0.58,0.3,0.729,0.459,1.33,0.49
	c0.66,0.027,1.38,0,1.94-0.07c0.5-0.07,1.24-0.28,1.6-0.49v-3c0,0.16-0.65,0.411-0.939,0.52C11.061,13.18,9.867,13.195,9.5,12.721z
	 M17.5,1.5v17h-17v-17H17.5z M11.561,13.02c-0.5,0.16-1.584,0.123-2.061-0.299V8.5"/>
</svg>
