<?xml version="1.0" encoding="utf-8"?>
<!-- Generator: Adobe Illustrator 16.0.4, SVG Export Plug-In . SVG Version: 6.00 Build 0)  -->
<!DOCTYPE svg PUBLIC "-//W3C//DTD SVG 1.1//EN" "http://www.w3.org/Graphics/SVG/1.1/DTD/svg11.dtd">
<svg version="1.1" id="Layer_1" xmlns="http://www.w3.org/2000/svg" xmlns:xlink="http://www.w3.org/1999/xlink" x="0px" y="0px"
	 width="20px" height="20px" viewBox="0 0 20 20" enable-background="new 0 0 20 20" xml:space="preserve">
<path d="M19,4.75c-0.12,0.26-0.34,0.58-0.67,0.971C18,6.109,17.6,6.45,17.109,6.74l0.031,0.3c0.06,1.44-0.291,2.94-0.771,4.19
	c-0.932,2.31-2.352,4.18-4.38,5.438c-2.12,1.222-4.59,1.479-6.87,1.261c-1.511-0.171-2.99-0.671-4.12-1.601
	c2.061,0.25,3.98-0.45,5.5-1.58c-1.689,0.04-2.91-1.181-3.49-2.59c0.26,0.069,0.53,0.062,0.78,0.04c0.31-0.03,0.601-0.061,0.88-0.12
	c-1.07-0.351-2.01-0.99-2.51-1.95c-0.28-0.61-0.41-1.19-0.42-1.84c0.51,0.26,1.109,0.521,1.67,0.5C2.57,8.08,1.9,7.17,1.77,6.13
	c-0.081-0.87,0.14-1.659,0.451-2.4c1.26,1.379,2.67,2.51,4.289,3.209C7.62,7.4,8.73,7.641,9.87,7.641
	C9.74,6.62,9.84,5.63,10.32,4.79c0.571-0.899,1.39-1.42,2.321-1.681C13.96,2.77,15.26,3.25,16.07,4.17
	c0.88-0.09,1.72-0.48,2.39-0.88c-0.29,0.86-0.84,1.72-1.649,2.13C17.58,5.27,18.32,5.05,19,4.75z"/>
</svg>
