<?xml version="1.0" encoding="utf-8"?>
<!-- Generator: Adobe Illustrator 16.0.4, SVG Export Plug-In . SVG Version: 6.00 Build 0)  -->
<!DOCTYPE svg PUBLIC "-//W3C//DTD SVG 1.1//EN" "http://www.w3.org/Graphics/SVG/1.1/DTD/svg11.dtd">
<svg version="1.1" id="Layer_1" xmlns="http://www.w3.org/2000/svg" xmlns:xlink="http://www.w3.org/1999/xlink" x="0px" y="0px"
	 width="20px" height="20px" viewBox="0 0 20 20" enable-background="new 0 0 20 20" xml:space="preserve">
<path d="M9.75,19h0.5c3.16-0.05,6.16-0.391,6.71-0.891c0.13-1.109,0.28-1.639-4.819-3.969C11.42,13.75,11.8,12.23,11.8,12.23
	c1.54-1.121,2.591-3.71,2.591-5.78c0-3.58-1.681-5.28-4.141-5.45h-0.5C7.29,1.17,5.61,2.87,5.61,6.45c0,2.07,1.05,4.659,2.59,5.78
	c0,0,0.38,1.52-0.34,1.91c-5.1,2.33-4.95,2.858-4.82,3.969C3.59,18.609,6.59,18.95,9.75,19z"/>
</svg>
