<?xml version="1.0" encoding="utf-8"?>
<!-- Generator: Adobe Illustrator 16.0.4, SVG Export Plug-In . SVG Version: 6.00 Build 0)  -->
<!DOCTYPE svg PUBLIC "-//W3C//DTD SVG 1.1//EN" "http://www.w3.org/Graphics/SVG/1.1/DTD/svg11.dtd">
<svg version="1.1" id="Layer_1" xmlns="http://www.w3.org/2000/svg" xmlns:xlink="http://www.w3.org/1999/xlink" x="0px" y="0px"
	 width="20px" height="20px" viewBox="0 0 20 20" enable-background="new 0 0 20 20" xml:space="preserve">
<path d="M17.221,12c-0.591,1.93-1.811,3.529-3.479,4.5l0.38-1.09l2.102-6.09c0.198-0.59,0.34-1.25,0.42-1.97
	c0.028-0.3,0.028-0.6-0.021-0.87C17.48,8.33,17.73,10.17,17.221,12z M3.12,6.99l3.601,9.75C5.42,16.1,4.391,15.16,3.66,14.029
	C2.32,11.891,2.18,9.18,3.12,6.99z M6.141,5.74c-0.83,0.11-1.631,0.15-2.42,0.12c1.5-2.14,3.899-3.35,6.27-3.37
	c1.938,0.04,3.75,0.77,5.079,1.979c-0.619-0.05-0.979,0.22-1.25,0.68c-0.391,1.19,0.431,2.07,0.891,2.97
	c0.432,0.81,0.398,1.74,0.16,2.54l-1.13,3.85L11.02,6.42c0.28-0.02,0.57-0.03,0.82-0.08c0.311-0.07,0.381-0.35,0.17-0.52
	c-0.07-0.061-0.15-0.08-0.23-0.08L10.15,5.86H8.91C8.561,5.88,7.57,5.54,7.49,6C7.45,6.17,7.58,6.31,7.73,6.34l0.83,0.1l1.19,3.19
	L8.1,14.51L5.35,6.42C5.641,6.4,5.939,6.39,6.2,6.34c0.21-0.03,0.31-0.13,0.28-0.32C6.439,5.85,6.29,5.74,6.141,5.74z M7.87,17.21
	l2.26-6.489l2.36,6.35C10.9,17.6,9.4,17.63,7.87,17.21z M9.99,1.81C5.42,1.9,1.82,5.62,1.79,9.99c0.08,4.58,3.83,8.17,8.2,8.199
	c4.58-0.08,8.17-3.83,8.199-8.199C18.109,5.41,14.35,1.84,9.99,1.81z M9.99,18.82c-4.93-0.09-8.78-4.131-8.811-8.83
	c0.1-4.92,4.11-8.78,8.811-8.81c4.92,0.1,8.8,4.11,8.83,8.81C18.721,14.92,14.689,18.79,9.99,18.82z"/>
</svg>
