<?xml version="1.0" encoding="utf-8"?>
<!-- Generator: Adobe Illustrator 16.0.4, SVG Export Plug-In . SVG Version: 6.00 Build 0)  -->
<!DOCTYPE svg PUBLIC "-//W3C//DTD SVG 1.1//EN" "http://www.w3.org/Graphics/SVG/1.1/DTD/svg11.dtd">
<svg version="1.1" id="Layer_1" xmlns="http://www.w3.org/2000/svg" xmlns:xlink="http://www.w3.org/1999/xlink" x="0px" y="0px"
	 width="20px" height="20px" viewBox="0 0 20 20" enable-background="new 0 0 20 20" xml:space="preserve">
<path d="M5.491,11.439L5.53,11.48c0.061-0.121,0.16-0.25,0.301-0.391L5.491,11.439z M5.529,11.48
	C5.34,11.822,5.45,12.102,5.83,12.482l0.35,0.34c0.381,0.391,0.66,0.488,1,0.311c0.12-0.07,0.24-0.17,0.381-0.311l2.08-2.07
	c0.479-0.12,0.789-0.2,1.169,0.18c0.379,0.381,0.399,0.76,0.271,1.25l-3.121,3.109c-1.101,1.111-2.78,1.371-4.149,0
	c-1.24-1.229-1.11-3.049,0-4.148l6.229-6.229c1.102-1.11,2.75-1.41,4.148,0c1.399,1.399,1.201,2.959,0.352,3.81
	c-0.539,0.53-0.479,1.17-0.148,1.53l0.349,0.349c0.52,0.52,1,0.351,1.51-0.169c1.771-2.109,1.66-5.27-0.33-7.25
	c-2.101-2.109-5.239-2.37-7.608,0l-6.23,6.23c-2.109,2.102-2.109,5.511,0,7.607c2.1,2.111,5.51,2.111,7.609,0l3.121-3.106
	c0.938-1.433,0.811-3.292-0.451-4.542c-1.252-1.25-3.03-1.28-4.45-0.35l-2.08,2.07C5.689,11.23,5.59,11.359,5.529,11.48z
	 M7.181,13.131l0.041,0.041l0.34-0.35C7.42,12.961,7.3,13.061,7.181,13.131z"/>
</svg>
