<?xml version="1.0" encoding="utf-8"?>
<!-- Generator: Adobe Illustrator 16.0.4, SVG Export Plug-In . SVG Version: 6.00 Build 0)  -->
<!DOCTYPE svg PUBLIC "-//W3C//DTD SVG 1.1//EN" "http://www.w3.org/Graphics/SVG/1.1/DTD/svg11.dtd">
<svg version="1.1" id="Layer_1" xmlns="http://www.w3.org/2000/svg" xmlns:xlink="http://www.w3.org/1999/xlink" x="0px" y="0px"
	 width="20px" height="20px" viewBox="0 0 20 20" enable-background="new 0 0 20 20" xml:space="preserve">
<path d="M12.561,4.865c2.25,0.89,3.729,3.06,3.729,5.59c0,2.529-1.479,4.699-3.729,5.589v1.261c2.931-0.949,4.939-3.66,4.939-6.85
	c0-3.2-2.01-5.91-4.939-6.85V4.865z M12.561,7.825c0.75,0.64,1.119,1.579,1.119,2.63c0,1.05-0.369,1.99-1.119,2.619v1.281
	c1.369-0.781,2.182-2.24,2.182-3.9c0-1.67-0.812-3.12-2.182-3.9V7.825z M2.5,14.5h3l4.189,4.516c0.581,0.66,1.801,0.729,1.811-0.551
	v-16c-0.1-1.14-1.32-1.189-1.811-0.57L5.5,7.5h-3c-1.57,0-2,0.456-2,1.965l0.02,2.93C0.52,14.025,0.891,14.5,2.5,14.5z"/>
</svg>
