<?xml version="1.0" encoding="utf-8"?>
<!-- Generator: Adobe Illustrator 16.0.4, SVG Export Plug-In . SVG Version: 6.00 Build 0)  -->
<!DOCTYPE svg PUBLIC "-//W3C//DTD SVG 1.1//EN" "http://www.w3.org/Graphics/SVG/1.1/DTD/svg11.dtd">
<svg version="1.1" id="Layer_1" xmlns="http://www.w3.org/2000/svg" xmlns:xlink="http://www.w3.org/1999/xlink" x="0px" y="0px"
	 width="20px" height="20px" viewBox="0 0 20 20" enable-background="new 0 0 20 20" xml:space="preserve">
<path d="M5.68,12.45v1.31h1.541c0.129,0,0.25-0.1,0.35-0.199C7.66,13.45,7.7,13.3,7.7,13.15v-0.11c0-0.14-0.04-0.28-0.13-0.399
	c-0.09-0.101-0.23-0.181-0.36-0.188L5.68,12.45L5.68,12.45z M12.8,11.45c-0.31,0-0.55,0.09-0.71,0.25
	c-0.15,0.17-0.21,0.43-0.24,0.72h1.83c0-0.29-0.109-0.55-0.25-0.72C13.279,11.54,13.07,11.45,12.8,11.45z M5.62,10.25v1.37
	l1.569-0.101c0.131,0,0.24-0.102,0.33-0.199c0.09-0.11,0.141-0.26,0.141-0.41v-0.1c0-0.143-0.051-0.281-0.141-0.4
	c-0.08-0.1-0.209-0.16-0.34-0.17L5.62,10.25z M12.73,10.109c0.449,0,0.85,0.061,1.188,0.171c0.357,0.12,0.648,0.3,0.893,0.541
	c0.237,0.229,0.42,0.539,0.539,0.91c0.17,0.479,0.221,1.028,0.211,1.561h-3.74c0,0.359,0.06,0.779,0.209,1
	c0.16,0.21,0.421,0.311,0.771,0.311c0.341,0,0.74-0.129,0.87-0.511c0.03-0.1,0.051-0.17,0.051-0.35h1.819
	c0,0.71-0.19,1.18-0.67,1.608c-0.54,0.439-1.31,0.602-2.03,0.621c-0.449,0-0.85-0.08-1.21-0.201c-0.36-0.108-0.67-0.289-0.92-0.528
	c-0.25-0.24-0.44-0.54-0.58-0.91c-0.13-0.37-0.2-0.802-0.2-1.302c0-0.488,0.061-0.92,0.2-1.278c0.13-0.37,0.31-0.67,0.56-0.91
	c0.24-0.25,0.541-0.43,0.881-0.55C11.92,10.17,12.311,10.109,12.73,10.109z M11.5,8.5h3v1h-3V8.5z M3.5,8.5h4.42
	c0.439,0,0.92,0.25,1.28,0.58c0.329,0.32,0.521,0.77,0.53,1.27c0,0.38-0.11,0.811-0.371,1.16c-0.17,0.24-0.439,0.41-0.799,0.51
	v0.051c0.359,0.08,0.68,0.25,0.91,0.529c0.27,0.353,0.379,0.82,0.389,1.28c0,0.49-0.229,0.63-0.609,1.021
	c-0.34,0.33-0.88,0.601-1.391,0.601H3.5V8.5z M0.5,1.5v17h17v-17H0.5z"/>
</svg>
