<?xml version="1.0" encoding="utf-8"?>
<!-- Generator: Adobe Illustrator 16.0.4, SVG Export Plug-In . SVG Version: 6.00 Build 0)  -->
<!DOCTYPE svg PUBLIC "-//W3C//DTD SVG 1.1//EN" "http://www.w3.org/Graphics/SVG/1.1/DTD/svg11.dtd">
<svg version="1.1" id="Layer_1" xmlns="http://www.w3.org/2000/svg" xmlns:xlink="http://www.w3.org/1999/xlink" x="0px" y="0px"
	 width="20px" height="20px" viewBox="0 0 20 20" enable-background="new 0 0 20 20" xml:space="preserve">
<path d="M5.5,1.5c-1.471,0-2,0.561-2,2v14c0,1.029-0.04,1.98,0.54,2c0.39,0,0.76-0.32,1.06-0.609c0,0,3.641-4.051,3.881-4.141
	c0.129-0.05-0.01-0.061-0.021-0.04c0,0.011,0.021,0.03,0.06,0.04c0.24,0.09,3.88,4.141,3.88,4.141
	c0.301,0.289,0.67,0.609,1.061,0.609c0.58-0.02,0.539-0.971,0.539-2v-14c0-1.5-0.568-2-1.999-2H5.5z"/>
</svg>
