<?xml version="1.0" encoding="utf-8"?>
<!-- Generator: Adobe Illustrator 16.0.4, SVG Export Plug-In . SVG Version: 6.00 Build 0)  -->
<!DOCTYPE svg PUBLIC "-//W3C//DTD SVG 1.1//EN" "http://www.w3.org/Graphics/SVG/1.1/DTD/svg11.dtd">
<svg version="1.1" id="Layer_1" xmlns="http://www.w3.org/2000/svg" xmlns:xlink="http://www.w3.org/1999/xlink" x="0px" y="0px"
	 width="20px" height="20px" viewBox="0 0 20 20" enable-background="new 0 0 20 20" xml:space="preserve">
<path d="M5.5,4.5v-2c0-0.59-0.43-1-1-1c-0.55,0-1,0.42-1,1v2c0,0.58,0.42,1,1,1S5.5,5.08,5.5,4.5z M15.5,4.5v-2c0-0.59-0.43-1-1-1
	c-0.55,0-1,0.42-1,1v2c0,0.58,0.42,1,1,1S15.5,5.08,15.5,4.5z M4.5,9.5v2h2v-2H4.5z M4.5,12.5v2h2v-2H4.5z M8.5,9.5v2h2v-2H8.5z
	 M8.5,12.5v2h2v-2H8.5z M12.5,9.5v2h2v-2H12.5z M12.5,12.5v2h2v-2H12.5z M2.5,18.5h14c1.52,0,2-0.52,2-2v-12c0-1.43-0.439-2-2-2v3
	c0,0.58-0.42,1-1,1h-2c-0.58,0-1-0.42-1-1v-3h-6v3c0,0.58-0.42,1-1,1h-2c-0.58,0-1-0.42-1-1v-3l0.09-0.04
	C1.061,2.46,0.5,2.95,0.5,4.5v12C0.5,18.02,1.02,18.5,2.5,18.5z M2.5,7.5h14v9h-14V7.5z"/>
</svg>
