<?xml version="1.0" encoding="utf-8"?>
<!-- Generator: Adobe Illustrator 16.0.4, SVG Export Plug-In . SVG Version: 6.00 Build 0)  -->
<!DOCTYPE svg PUBLIC "-//W3C//DTD SVG 1.1//EN" "http://www.w3.org/Graphics/SVG/1.1/DTD/svg11.dtd">
<svg version="1.1" id="Layer_1" xmlns="http://www.w3.org/2000/svg" xmlns:xlink="http://www.w3.org/1999/xlink" x="0px" y="0px"
	 width="20px" height="20px" viewBox="0 0 20 20" enable-background="new 0 0 20 20" xml:space="preserve">
<path d="M9.498,12.471l4.529,4.67c0.461,0.479,0.75,0.479,1.211,0l0.91-0.931c0.449-0.47,0.479-0.771,0-1.26L11.357,10l4.791-4.949
	c0.449-0.471,0.459-0.781,0-1.261l-0.91-0.93c-0.471-0.49-0.76-0.47-1.211,0L9.498,7.54L4.969,2.86c-0.451-0.47-0.74-0.49-1.211,0
	l-0.91,0.93c-0.459,0.48-0.45,0.79,0,1.261L7.639,10l-4.791,4.95c-0.479,0.489-0.449,0.79,0,1.26l0.91,0.931
	c0.461,0.479,0.75,0.479,1.211,0L9.498,12.471z"/>
</svg>
