<?xml version="1.0" encoding="utf-8"?>
<!-- Generator: Adobe Illustrator 16.0.4, SVG Export Plug-In . SVG Version: 6.00 Build 0)  -->
<!DOCTYPE svg PUBLIC "-//W3C//DTD SVG 1.1//EN" "http://www.w3.org/Graphics/SVG/1.1/DTD/svg11.dtd">
<svg version="1.1" id="Layer_1" xmlns="http://www.w3.org/2000/svg" xmlns:xlink="http://www.w3.org/1999/xlink" x="0px" y="0px"
	 width="20px" height="20px" viewBox="0 0 20 20" enable-background="new 0 0 20 20" xml:space="preserve">
<path d="M15.5,15.5c1.66,0,3-1.529,3-3.26c0-1.62-1.189-3.11-2.71-3.26c0.03-0.21,0.04-0.44,0.04-0.66c0-2.66-2.08-4.82-4.66-4.82
	c-2.05,0-3.79,1.36-4.42,3.26c-0.32-0.09-0.65-0.12-1-0.14C3.22,6.45,2,7.3,2,10.529c0,0.211,0.01,0.41,0.05,0.601
	c-0.89,0.22-1.55,1.04-1.55,2.011c0,1.139,1.14,2.359,2.25,2.359H15.5z"/>
</svg>
