<?xml version="1.0" encoding="utf-8"?>
<!-- Generator: Adobe Illustrator 16.0.4, SVG Export Plug-In . SVG Version: 6.00 Build 0)  -->
<!DOCTYPE svg PUBLIC "-//W3C//DTD SVG 1.1//EN" "http://www.w3.org/Graphics/SVG/1.1/DTD/svg11.dtd">
<svg version="1.1" id="Layer_1" xmlns="http://www.w3.org/2000/svg" xmlns:xlink="http://www.w3.org/1999/xlink" x="0px" y="0px"
	 width="20px" height="20px" viewBox="0 0 20 20" enable-background="new 0 0 20 20" xml:space="preserve">
<path d="M13.5,14.5h3c1.439,0,2-0.561,2-2v-9c0-1.439-0.59-2-2-2h-14c-1.439,0-2,0.53-2,2v9c0,1.439,0.471,2,2,2h6
	c0,0,4.48,4.609,4.311,4.471c0,0,0.549-0.091,0.689-0.471V14.5z M3.5,10.5h10v1h-10V10.5z M3.5,7.5h6v1h-6V7.5z M3.5,4.5h12v1h-12
	V4.5z"/>
</svg>
