<?xml version="1.0" encoding="utf-8"?>
<!-- Generator: Adobe Illustrator 16.0.4, SVG Export Plug-In . SVG Version: 6.00 Build 0)  -->
<!DOCTYPE svg PUBLIC "-//W3C//DTD SVG 1.1//EN" "http://www.w3.org/Graphics/SVG/1.1/DTD/svg11.dtd">
<svg version="1.1" id="Layer_1" xmlns="http://www.w3.org/2000/svg" xmlns:xlink="http://www.w3.org/1999/xlink" x="0px" y="0px"
	 width="20px" height="20px" viewBox="0 0 20 20" enable-background="new 0 0 20 20" xml:space="preserve">
<path d="M7.5,16.5L5,17.16c-0.21,0.02-0.45,0.23-0.45,0.449v0.438c0,0.229,0.21,0.451,0.45,0.451h9c0.189,0,0.45-0.181,0.45-0.45
	v-0.439C14.439,17.37,14.2,17.17,14,17.16l-2.5-0.66H7.5z M16.5,15.5c1.48,0,2-0.46,2-2v-10c0-1.52-0.48-2-2-2h-14
	c-1.42,0-2,0.561-2,2v10c0,1.5,0.62,2,2,2H16.5z M16.5,3.5v10h-14v-10H16.5z"/>
</svg>
