<?xml version="1.0" encoding="utf-8"?>
<!-- Generator: Adobe Illustrator 16.0.4, SVG Export Plug-In . SVG Version: 6.00 Build 0)  -->
<!DOCTYPE svg PUBLIC "-//W3C//DTD SVG 1.1//EN" "http://www.w3.org/Graphics/SVG/1.1/DTD/svg11.dtd">
<svg version="1.1" id="Layer_1" xmlns="http://www.w3.org/2000/svg" xmlns:xlink="http://www.w3.org/1999/xlink" x="0px" y="0px"
	 width="20px" height="20px" viewBox="0 0 20 20" enable-background="new 0 0 20 20" xml:space="preserve">
<path d="M10.87,11.75c0.71,1.83,1.26,3.859,1.64,5.84C11.58,17.98,10.57,18.2,9.5,18.2c-1.779,0-3.42-0.61-4.721-1.62
	C6.17,14.32,8.33,12.6,10.87,11.75z M17.141,11.43l-0.021,0.131L17.141,11.43z M13.779,11.29c1.121,0,2.281,0.149,3.32,0.431
	c-0.342,2.149-1.57,4-3.312,5.17c-0.41-1.881-0.8-3.681-1.5-5.49C12.77,11.33,13.27,11.29,13.779,11.29z M17.17,11.141l-0.01,0.09
	L17.17,11.141z M9.71,9.189c0.2,0.41,0.42,0.851,0.63,1.291c-2.51,1.109-5.17,2.581-6.561,5.17C2.55,14.29,1.8,12.48,1.8,10.5
	l0.011-0.23C4.49,10.26,7.13,9.93,9.71,9.189L9.71,9.189z M15.46,5.63c1.08,1.32,1.72,2.99,1.74,4.82
	c-1.78-0.351-3.55-0.44-5.36-0.261c-0.199-0.51-0.449-0.989-0.68-1.5C12.71,8.061,14.37,6.98,15.46,5.63z M6.23,3.53
	c1,1.5,1.97,2.899,2.859,4.47C6.84,8.58,4.311,8.93,1.96,8.939C2.46,6.54,4.07,4.55,6.23,3.53z M9.5,2.8
	c1.96,0,3.75,0.74,5.109,1.94c-1,1.32-2.521,2.199-4.039,2.79C9.74,6.02,8.73,4.42,7.689,3.02C8.27,2.88,8.88,2.8,9.5,2.8z M9.5,1.5
	c-4.971,0-9,4.03-9,9c0,4.971,4.029,9,9,9c4.971,0,9-4.029,9-9C18.5,5.53,14.471,1.5,9.5,1.5z"/>
</svg>
