<?xml version="1.0" encoding="utf-8"?>
<!-- Generator: Adobe Illustrator 16.0.4, SVG Export Plug-In . SVG Version: 6.00 Build 0)  -->
<!DOCTYPE svg PUBLIC "-//W3C//DTD SVG 1.1//EN" "http://www.w3.org/Graphics/SVG/1.1/DTD/svg11.dtd">
<svg version="1.1" id="Layer_1" xmlns="http://www.w3.org/2000/svg" xmlns:xlink="http://www.w3.org/1999/xlink" x="0px" y="0px"
	 width="20px" height="20px" viewBox="0 0 20 20" enable-background="new 0 0 20 20" xml:space="preserve">
<path d="M12.67,4.5l-0.05,0.06l-8.86,8.85c-0.1,0.1-0.18,0.199-0.229,0.29C2.68,12.59,2.18,11.189,2.18,9.631
	c0-3.681,2.771-6.479,6.451-6.479C10.18,3.15,11.57,3.65,12.67,4.5z M4.86,14.98c0.079-0.051,0.17-0.121,0.26-0.211l8.851-8.859
	l0.021-0.02c0.729,1.06,1.148,2.35,1.148,3.77c0,3.68-2.801,6.51-6.479,6.51C7.221,16.17,5.92,15.73,4.86,14.98z M0.5,9.66
	c0,4.51,3.65,8.16,8.16,8.16c4.51,0,8.16-3.65,8.16-8.16c0-4.51-3.65-8.16-8.16-8.16C4.15,1.5,0.5,5.15,0.5,9.66z"/>
</svg>
