<?xml version="1.0" encoding="utf-8"?>
<!-- Generator: Adobe Illustrator 16.0.4, SVG Export Plug-In . SVG Version: 6.00 Build 0)  -->
<!DOCTYPE svg PUBLIC "-//W3C//DTD SVG 1.1//EN" "http://www.w3.org/Graphics/SVG/1.1/DTD/svg11.dtd">
<svg version="1.1" id="Layer_1" xmlns="http://www.w3.org/2000/svg" xmlns:xlink="http://www.w3.org/1999/xlink" x="0px" y="0px"
	 width="20px" height="20px" viewBox="0 0 20 20" enable-background="new 0 0 20 20" xml:space="preserve">
<path d="M10,1c0.49,0,2.311,5.23,2.79,5.58C13.27,6.92,18.85,7.03,19,7.49c0.15,0.46-4.311,3.789-4.49,4.35s1.44,5.86,1.051,6.141
	C15.17,18.27,10.59,15.1,10,15.1s-5.17,3.17-5.56,2.881C4.05,17.7,5.67,12.4,5.49,11.84C5.31,11.279,0.85,7.95,1,7.49
	c0.15-0.46,5.73-0.57,6.21-0.91C7.69,6.23,9.51,1,10,1z"/>
</svg>
