<?xml version="1.0" encoding="utf-8"?>
<!-- Generator: Adobe Illustrator 16.0.4, SVG Export Plug-In . SVG Version: 6.00 Build 0)  -->
<!DOCTYPE svg PUBLIC "-//W3C//DTD SVG 1.1//EN" "http://www.w3.org/Graphics/SVG/1.1/DTD/svg11.dtd">
<svg version="1.1" id="Layer_1" xmlns="http://www.w3.org/2000/svg" xmlns:xlink="http://www.w3.org/1999/xlink" x="0px" y="0px"
	 width="20px" height="20px" viewBox="0 0 20 20" enable-background="new 0 0 20 20" xml:space="preserve">
<path d="M3.5,11.5v3.35c0.1,0.262,0.391,0.021,0.391,0.021c-0.121,0.09,2.58-3.01,2.58-3.01L6.5,12.5c0,1.57,0.471,2,2,2h3.57
	l2.619,2.77c0,0,1.143,0.961,1.701-0.082C16.645,16.581,16.5,14.5,16.5,14.5c1.49,0,2-0.43,2-2v-6c0-1.439-0.471-2-2-2h-4
	c0-1.5-0.57-2-2-2h-8c-1.45,0-2,0.54-2,2v4.21c0,1.479,0.48,2.79,2,2.79H3.5z M14.5,12.5l0.01,2.08l-1.66-2.07L8.5,12.5v-6h8v6H14.5
	z"/>
</svg>
