<?xml version="1.0" encoding="utf-8"?>
<!-- Generator: Adobe Illustrator 16.0.4, SVG Export Plug-In . SVG Version: 6.00 Build 0)  -->
<!DOCTYPE svg PUBLIC "-//W3C//DTD SVG 1.1//EN" "http://www.w3.org/Graphics/SVG/1.1/DTD/svg11.dtd">
<svg version="1.1" id="Layer_1" xmlns="http://www.w3.org/2000/svg" xmlns:xlink="http://www.w3.org/1999/xlink" x="0px" y="0px"
	 width="20px" height="20px" viewBox="0 0 20 20" enable-background="new 0 0 20 20" xml:space="preserve">
<path d="M12.471,6.8c1.771,0,3.209,1.431,3.209,3.2c0,1.77-1.438,3.21-3.209,3.21C10.7,13.21,9.27,11.77,9.27,10
	C9.27,8.23,10.7,6.8,12.471,6.8z M5.529,6.8C7.3,6.8,8.73,8.23,8.73,10c0,1.77-1.43,3.21-3.201,3.21c-1.77,0-3.209-1.44-3.209-3.21
	C2.32,8.23,3.76,6.8,5.529,6.8z M0.5,1.5v17h17v-17H0.5z"/>
</svg>
