<?xml version="1.0" encoding="utf-8"?>
<!-- Generator: Adobe Illustrator 16.0.4, SVG Export Plug-In . SVG Version: 6.00 Build 0)  -->
<!DOCTYPE svg PUBLIC "-//W3C//DTD SVG 1.1//EN" "http://www.w3.org/Graphics/SVG/1.1/DTD/svg11.dtd">
<svg version="1.1" id="Layer_1" xmlns="http://www.w3.org/2000/svg" xmlns:xlink="http://www.w3.org/1999/xlink" x="0px" y="0px"
	 width="20px" height="20px" viewBox="0 0 20 20" enable-background="new 0 0 20 20" xml:space="preserve">
<path d="M11.75,2.94c0,0.81-0.471,1.19-1.25,1.19c-0.779,0-1.25-0.44-1.25-1.25S9.66,1.5,10.439,1.5
	C11.221,1.5,11.75,2.13,11.75,2.94z M4.25,14.891c1.141,0,1.71,0.328,1.71,1c0,0.709-0.53,1.068-1.569,1.068
	c-1.19,0-1.781-0.35-1.781-1.029C2.609,15.24,3.16,14.891,4.25,14.891z M4.109,6.87c0.41,0,0.721,0.15,0.951,0.45
	C5.25,7.6,5.35,7.93,5.35,8.31c0,0.92-0.42,1.38-1.24,1.38c-0.85,0-1.28-0.46-1.28-1.36C2.83,7.35,3.26,6.87,4.109,6.87z
	 M4.029,5.06c-0.92,0-1.709,0.29-2.369,0.88C0.971,6.57,0.62,7.36,0.62,8.31c0,0.63,0.19,1.22,0.569,1.77
	c0.34,0.51,0.721,0.84,1.16,0.99v0.039C1.91,11.289,1.7,11.75,1.7,12.48c0,0.567,0.229,0.987,0.69,1.27v0.029
	c-1.26,0.41-1.89,1.17-1.89,2.27c0,0.961,0.42,1.66,1.26,2.111c0.66,0.35,1.5,0.529,2.53,0.529c2.5,0,3.75-1.021,3.75-3.049
	c0-1.281-0.96-2.062-2.899-2.353C4.701,13.23,4.36,13.07,4.13,12.82c-0.18-0.17-0.26-0.34-0.26-0.51c0-0.49,0.271-0.771,0.81-0.853
	c0.82-0.119,1.49-0.49,2.01-1.109c0.531-0.63,0.79-1.36,0.79-2.2c0-0.26-0.061-0.55-0.17-0.85c0.35-0.08,0.719-0.2,0.91-0.27V5
	c-0.85,0.32-1.7,0.53-2.35,0.53C5.311,5.21,4.689,5.06,4.029,5.06z M9.5,13.5v-8h2v8H9.5z M15.5,4.5h2v2h-2l-0.061,3.879
	c0,0.88,0.42,1.419,1.011,1.419c0.42,0,0.649-0.067,1.03-0.289l0.02,1.802c-0.391,0.27-0.779,0.358-1.48,0.358
	c-0.99,0-1.688-0.351-2.067-1.028c-0.281-0.513-0.451-0.853-0.451-1.951V6.5h-1v-2h1v-1h2C15.46,3.5,15.5,4.5,15.5,4.5z"/>
</svg>
