<?xml version="1.0" encoding="utf-8"?>
<!-- Generator: Adobe Illustrator 16.0.4, SVG Export Plug-In . SVG Version: 6.00 Build 0)  -->
<!DOCTYPE svg PUBLIC "-//W3C//DTD SVG 1.1//EN" "http://www.w3.org/Graphics/SVG/1.1/DTD/svg11.dtd">
<svg version="1.1" id="Layer_1" xmlns="http://www.w3.org/2000/svg" xmlns:xlink="http://www.w3.org/1999/xlink" x="0px" y="0px"
	 width="20px" height="20px" viewBox="0 0 20 20" enable-background="new 0 0 20 20" xml:space="preserve">
<path d="M4.721,15.32c-0.601,0-1.181,0.109-1.771,0.188c-0.91,0.182-1.74,0.54-2.44,1.28L0.5,18.5h8.02
	c0.03,0,0.041-0.18,0.041-0.27c-0.011-0.621-0.42-1.19-0.931-1.621c-0.7-0.602-1.521-0.67-2.31-1.25
	C5.12,15.33,4.92,15.32,4.721,15.32z M0.5,10.66v4.311c1.061-0.631,2.04-0.711,3.109-0.74c0.341,0,0.631-0.01,0.871-0.021
	c-0.17-0.229-0.34-0.47-0.5-0.729C3.609,12.9,3.7,12.18,3.97,11.541C2.71,11.7,1.561,11.471,0.5,10.66z M3.62,3.84
	C3.311,3.85,3,3.91,2.7,4.05C2.109,4.34,1.68,4.811,1.52,5.52c-0.129,0.73-0.1,1.51,0.089,2.3C1.83,8.72,2.27,9.57,3.07,10.189
	c0.6,0.431,1.51,0.491,2.27,0.28C5.939,10.3,6.37,9.73,6.6,9.12c0.211-0.67,0.141-1.431-0.039-2.2C6.32,5.939,5.84,5,5.01,4.29
	C4.62,3.99,4.13,3.83,3.62,3.84z M0.5,1.5v2.99c1.061-1.02,2.42-1.99,4-1.99h6L8.76,4.33H7.25c0.37,0.359,0.71,0.58,0.971,1.029
	C8.57,5.95,8.75,6.58,8.76,7.311c0,0.699-0.17,1.449-0.61,2.109c-0.36,0.52-0.871,0.96-1.4,1.38c-0.359,0.351-0.67,0.64-0.689,1.2
	c0,0.42,0.279,0.8,0.649,1.07c0.63,0.479,1.16,0.89,1.75,1.39c0.56,0.49,1.09,1.09,1.42,1.819c0.29,0.671,0.29,1.511,0.091,2.221
	H17.5v-11h-3v4h-1v-4h-4v-1h4v-4h1v4h3v-5H0.5z"/>
</svg>
