<?xml version="1.0" encoding="utf-8"?>
<!-- Generator: Adobe Illustrator 16.0.4, SVG Export Plug-In . SVG Version: 6.00 Build 0)  -->
<!DOCTYPE svg PUBLIC "-//W3C//DTD SVG 1.1 Tiny//EN" "http://www.w3.org/Graphics/SVG/1.1/DTD/svg11-tiny.dtd" [
	<!ENTITY ns_flows "http://ns.adobe.com/Flows/1.0/">
	<!ENTITY ns_extend "http://ns.adobe.com/Extensibility/1.0/">
	<!ENTITY ns_ai "http://ns.adobe.com/AdobeIllustrator/10.0/">
	<!ENTITY ns_graphs "http://ns.adobe.com/Graphs/1.0/">
]>
<svg version="1.1" baseProfile="tiny" id="Layer_1" xmlns:x="&ns_extend;" xmlns:i="&ns_ai;" xmlns:graph="&ns_graphs;"
	 xmlns="http://www.w3.org/2000/svg" xmlns:xlink="http://www.w3.org/1999/xlink" xmlns:a="http://ns.adobe.com/AdobeSVGViewerExtensions/3.0/"
	 x="0px" y="0px" width="20px" height="20px" viewBox="-0.5 0.5 20 20" xml:space="preserve">
<path d="M0.5,3.85V16c0,1.134,0.229,1.5,1.35,1.5h15.3c1.11,0,1.35-0.357,1.35-1.5V3.85c0-1.107-0.212-1.35-1.35-1.35H1.85
	C0.734,2.5,0.5,2.693,0.5,3.85z M16.38,14.5H2.629c1.503-2,4.175-5.996,4.855-5.996c0.657,0,2.889,2.877,3.897,3.917
	c0,0,1.296-1.62,1.977-1.62C14.049,10.801,16.357,14.5,16.38,14.5z M12.34,6.55c0-0.918,0.742-1.66,1.66-1.66s1.66,0.742,1.66,1.66
	S14.918,8.21,14,8.21S12.34,7.468,12.34,6.55z"/>
</svg>
