<?xml version="1.0" encoding="utf-8"?>
<!-- Generator: Adobe Illustrator 16.0.4, SVG Export Plug-In . SVG Version: 6.00 Build 0)  -->
<!DOCTYPE svg PUBLIC "-//W3C//DTD SVG 1.1//EN" "http://www.w3.org/Graphics/SVG/1.1/DTD/svg11.dtd">
<svg version="1.1" id="Layer_1" xmlns="http://www.w3.org/2000/svg" xmlns:xlink="http://www.w3.org/1999/xlink" x="0px" y="0px"
	 width="20px" height="20px" viewBox="0 0 20 20" enable-background="new 0 0 20 20" xml:space="preserve">
<path d="M16,6.84C16,3.67,13.4,1,10,1C6.609,1,4,3.68,4,6.85C4,7.9,4.16,8.77,4.68,9.62H4.67l5.141,9.271c0.189,0.25,0.39,0,0.39,0
	c-0.171,0.239,5.14-9.271,5.14-9.271h-0.01C15.859,8.77,16,7.891,16,6.84z M7.24,6.641c0-1.5,1.24-2.711,2.76-2.711
	c1.529,0,2.77,1.211,2.77,2.711c0,1.489-1.24,2.709-2.77,2.709C8.48,9.35,7.24,8.13,7.24,6.641z"/>
</svg>
