<?xml version="1.0" encoding="utf-8"?>
<!-- Generator: Adobe Illustrator 16.0.4, SVG Export Plug-In . SVG Version: 6.00 Build 0)  -->
<!DOCTYPE svg PUBLIC "-//W3C//DTD SVG 1.1//EN" "http://www.w3.org/Graphics/SVG/1.1/DTD/svg11.dtd">
<svg version="1.1" id="Layer_1" xmlns="http://www.w3.org/2000/svg" xmlns:xlink="http://www.w3.org/1999/xlink" x="0px" y="0px"
	 width="20px" height="20px" viewBox="0 0 20 20" enable-background="new 0 0 20 20" xml:space="preserve">
<path d="M13.5,8.5L6.471,1.91C7.52,1.55,8.55,1.5,9.58,1.5c1.3,0,2.79,0.46,3.92,1V8.5z M5.5,18.439
	c-1.88-1.09-3.48-2.812-4.189-4.549L5.5,10.5V18.439z M0.5,10.55c0.04-3.47,2-6.52,4.91-8.04l3.311,3.43L0.83,12.9
	C0.609,12.1,0.5,11.311,0.5,10.55z M17.5,14.5c-1.43,3.05-4.109,4.67-7.16,4.99c-1.57,0.1-2.33-0.28-3.84-0.83V14.5H17.5z M14.5,2.5
	c2.641,1.689,3.98,4.98,4,8.07c0,1.029-0.12,1.789-0.471,2.93H14.5V2.5z"/>
</svg>
