<?xml version="1.0" encoding="utf-8"?>
<!-- Generator: Adobe Illustrator 16.0.4, SVG Export Plug-In . SVG Version: 6.00 Build 0)  -->
<!DOCTYPE svg PUBLIC "-//W3C//DTD SVG 1.1//EN" "http://www.w3.org/Graphics/SVG/1.1/DTD/svg11.dtd">
<svg version="1.1" id="Layer_1" xmlns="http://www.w3.org/2000/svg" xmlns:xlink="http://www.w3.org/1999/xlink" x="0px" y="0px"
	 width="20px" height="20px" viewBox="0 0 20 20" enable-background="new 0 0 20 20" xml:space="preserve">
<path d="M7.5,5.5v-1c0-1.5-0.439-2-2-2c-1.5,0-2,0.561-2,2v1h-1c-1.561,0-2,0.5-2,2v8c0,1.529,0.439,2,2,2h13c1.561,0,2-0.471,2-2
	v-8c0-1.5-0.439-2-2-2h-1v-1c0-1.439-0.5-2-2-2c-1.561,0-2,0.5-2,2v1H7.5z"/>
</svg>
