<?xml version="1.0" encoding="utf-8"?>
<!-- Generator: Adobe Illustrator 16.0.4, SVG Export Plug-In . SVG Version: 6.00 Build 0)  -->
<!DOCTYPE svg PUBLIC "-//W3C//DTD SVG 1.1//EN" "http://www.w3.org/Graphics/SVG/1.1/DTD/svg11.dtd">
<svg version="1.1" id="Layer_1" xmlns="http://www.w3.org/2000/svg" xmlns:xlink="http://www.w3.org/1999/xlink" x="0px" y="0px"
	 width="20px" height="20px" viewBox="0 0 20 20" enable-background="new 0 0 20 20" xml:space="preserve">
<path d="M17.5,10.5v-1c-0.02-0.52-0.55-0.98-1-1h-6v-6c0.02-0.41-0.471-1-1-1h-1c-0.55,0-1,0.551-1,1v6h-6c-0.48,0.04-1,0.52-1,1v1
	c0,0.5,0.471,1,1,1h6v6c0,0.391,0.41,1,1,1h1c0.5,0,1-0.52,1-1v-6h6C16.93,11.5,17.5,11.09,17.5,10.5z"/>
</svg>
