<?xml version="1.0" encoding="utf-8"?>
<!-- Generator: Adobe Illustrator 16.0.4, SVG Export Plug-In . SVG Version: 6.00 Build 0)  -->
<!DOCTYPE svg PUBLIC "-//W3C//DTD SVG 1.1//EN" "http://www.w3.org/Graphics/SVG/1.1/DTD/svg11.dtd">
<svg version="1.1" id="Layer_1" xmlns="http://www.w3.org/2000/svg" xmlns:xlink="http://www.w3.org/1999/xlink" x="0px" y="0px"
	 width="20px" height="20px" viewBox="0 0 20 20" enable-background="new 0 0 20 20" xml:space="preserve">
<path d="M6.5,14.5v1h6v-1H6.5z M6.5,12.5v1h6v-1H6.5z M2.5,13.5h1v3c0,1.48,0.59,2,2,2h8c1.38,0,2-0.54,2-2v-3h1c1.52,0,2-0.41,2-2
	v-4c0-1.43-0.46-2-2-2h-1l-0.02-2.07c0-1.5-0.551-1.93-1.98-1.93h-8c-1.52,0-2,0.51-2,2v2h-1c-1.5,0-2,0.52-2,2v4
	C0.5,13.01,0.891,13.5,2.5,13.5z M13.5,16.5h-8v-5h8V16.5z M5.5,3.5h8v2h-8V3.5z M14.5,7.5h2v1h-2V7.5z"/>
</svg>
