<?xml version="1.0" encoding="utf-8"?>
<!-- Generator: Adobe Illustrator 16.0.4, SVG Export Plug-In . SVG Version: 6.00 Build 0)  -->
<!DOCTYPE svg PUBLIC "-//W3C//DTD SVG 1.1//EN" "http://www.w3.org/Graphics/SVG/1.1/DTD/svg11.dtd">
<svg version="1.1" id="Layer_1" xmlns="http://www.w3.org/2000/svg" xmlns:xlink="http://www.w3.org/1999/xlink" x="0px" y="0px"
	 width="20px" height="20px" viewBox="0 0 20 20" enable-background="new 0 0 20 20" xml:space="preserve">
<path d="M8.05,14.279c0,0.371,0.119,0.67,0.359,0.9C8.64,15.42,8.94,15.541,9.3,15.541c0.359,0,0.649-0.121,0.899-0.359
	c0.24-0.229,0.359-0.531,0.359-0.899c0-0.371-0.12-0.671-0.359-0.91c-0.25-0.238-0.54-0.351-0.899-0.351
	c-0.36,0-0.66,0.109-0.891,0.351C8.17,13.609,8.05,13.91,8.05,14.279z M8.33,12.301h1.69c-0.04-0.34-0.08-0.701,0.03-0.98
	c0.108-0.278,0.25-0.541,0.42-0.791c0.18-0.25,0.37-0.488,0.59-0.708c0.219-0.23,0.42-0.47,0.608-0.72
	c0.188-0.24,0.351-0.51,0.479-0.78c0.129-0.28,0.199-0.59,0.199-0.93c0-0.45-0.08-0.83-0.229-1.17
	c-0.147-0.33-0.369-0.61-0.647-0.84c-0.279-0.23-0.609-0.4-0.991-0.511C10.098,4.761,9.679,4.7,9.24,4.7c-0.62,0-1.18,0.13-1.67,0.4
	C7.08,5.36,6.65,5.7,6.291,6.11L7.37,7.06C7.62,6.8,7.881,6.6,8.16,6.45C8.44,6.3,8.75,6.22,9.099,6.22c0.431,0,0.761,0.119,1,0.359
	c0.24,0.23,0.361,0.551,0.361,0.94c0,0.24-0.062,0.479-0.182,0.69C10.15,8.43,10,8.65,9.82,8.87C9.631,9.09,9.429,9.32,9.23,9.55
	c-0.21,0.23-0.39,0.48-0.56,0.75c-0.16,0.271-0.279,0.569-0.369,0.89C8.22,11.52,8.27,11.92,8.33,12.301z M0.5,10.32
	c0,4.87,3.95,8.821,8.82,8.821s8.821-3.951,8.821-8.821S14.189,1.5,9.32,1.5S0.5,5.45,0.5,10.32z M2.12,10.32
	c0-3.98,3.229-7.2,7.2-7.2c3.971,0,7.2,3.22,7.2,7.2c0,3.981-3.229,7.2-7.2,7.2C5.349,17.52,2.12,14.301,2.12,10.32z"/>
</svg>
