<?xml version="1.0" encoding="utf-8"?>
<!-- Generator: Adobe Illustrator 16.0.4, SVG Export Plug-In . SVG Version: 6.00 Build 0)  -->
<!DOCTYPE svg PUBLIC "-//W3C//DTD SVG 1.1//EN" "http://www.w3.org/Graphics/SVG/1.1/DTD/svg11.dtd">
<svg version="1.1" id="Layer_1" xmlns="http://www.w3.org/2000/svg" xmlns:xlink="http://www.w3.org/1999/xlink" x="0px" y="0px"
	 width="20px" height="20px" viewBox="0 0 20 20" enable-background="new 0 0 20 20" xml:space="preserve">
<path d="M1,8.31c0,4.03,3.21,7.299,7.17,7.299s7.17-3.27,7.17-7.299C15.34,4.27,12.13,1,8.17,1S1,4.27,1,8.31z M3.27,8.31
	c0-2.76,2.2-5,4.9-5c2.71,0,4.9,2.24,4.9,5s-2.19,4.99-4.9,4.99C5.47,13.3,3.27,11.07,3.27,8.31z M13.221,15.01l3.09,3.61
	c0.5,0.5,0.819,0.51,1.319,0l0.99-1.011c0.489-0.5,0.521-0.819,0-1.35l-3.55-3.13L13.221,15.01z"/>
</svg>
