<?xml version="1.0" encoding="utf-8"?>
<!-- Generator: Adobe Illustrator 16.0.4, SVG Export Plug-In . SVG Version: 6.00 Build 0)  -->
<!DOCTYPE svg PUBLIC "-//W3C//DTD SVG 1.1//EN" "http://www.w3.org/Graphics/SVG/1.1/DTD/svg11.dtd">
<svg version="1.1" id="Layer_1" xmlns="http://www.w3.org/2000/svg" xmlns:xlink="http://www.w3.org/1999/xlink" x="0px" y="0px"
	 width="20px" height="20px" viewBox="0 0 20 20" enable-background="new 0 0 20 20" xml:space="preserve">
<path d="M1.5,11.471V17.5c0,1.34,0.68,2,2,2h6h5c1.32,0,2-0.66,2-2v-6.02c0-1.331-0.65-1.98-1.971-1.98H3.47
	C2.15,9.5,1.5,10.13,1.5,11.471z M8.48,15.779C7.67,15.5,7.03,14.98,7.03,14.061c0-1.16,0.83-1.92,1.97-1.92
	c1.141,0,1.91,0.75,1.91,1.91c0,0.898-0.561,1.408-1.35,1.699l0.94,1.75h-3L8.48,15.779z M2.77,8.451L5.34,8.44
	C5.46,6.291,6.61,3.9,9.52,3.9c2.15,0,3.23,1.24,3.88,2.7l2.25-1.51C14.73,3,12.62,1.53,9.62,1.5C5.25,1.46,2.77,4.69,2.77,8.451z"
	/>
</svg>
