<?xml version="1.0" encoding="utf-8"?>
<!-- Generator: Adobe Illustrator 16.0.4, SVG Export Plug-In . SVG Version: 6.00 Build 0)  -->
<!DOCTYPE svg PUBLIC "-//W3C//DTD SVG 1.1//EN" "http://www.w3.org/Graphics/SVG/1.1/DTD/svg11.dtd">
<svg version="1.1" id="Layer_1" xmlns="http://www.w3.org/2000/svg" xmlns:xlink="http://www.w3.org/1999/xlink" x="0px" y="0px"
	 width="20px" height="20px" viewBox="0 0 20 20" enable-background="new 0 0 20 20" xml:space="preserve">
<path d="M9.22,9.28C9.22,9.67,9.61,10,10,10s0.8-0.31,0.8-0.7c0-0.39-0.35-0.82-0.8-0.82C9.5,8.48,9.22,8.89,9.22,9.28z
	 M11.109,14.939C14.221,14.26,19,10.16,19,10.16s-3.55-5.53-8.311-6.13C10.42,4,9.49,3.99,9.31,4.01C4.71,4.45,1,10.34,1,10.34
	s4.03,3.95,7.83,4.59C9.27,15.02,10.65,15.02,11.109,14.939z M5.44,9.53C5.44,7.14,7.48,5.2,10,5.2c2.52,0,4.561,1.94,4.561,4.33
	c0,2.39-2.041,4.32-4.561,4.32C7.48,13.85,5.44,11.92,5.44,9.53z"/>
</svg>
