<?xml version="1.0" encoding="utf-8"?>
<!-- Generator: Adobe Illustrator 16.0.4, SVG Export Plug-In . SVG Version: 6.00 Build 0)  -->
<!DOCTYPE svg PUBLIC "-//W3C//DTD SVG 1.1//EN" "http://www.w3.org/Graphics/SVG/1.1/DTD/svg11.dtd">
<svg version="1.1" id="Layer_1" xmlns="http://www.w3.org/2000/svg" xmlns:xlink="http://www.w3.org/1999/xlink" x="0px" y="0px"
	 width="20px" height="20px" viewBox="0 0 20 20" enable-background="new 0 0 20 20" xml:space="preserve">
<path d="M18.5,1.5v17h-17v-17H18.5z M15,6.01c-1.76-1.449-4.09,0.53-4.641,2.12C10.7,8.141,11.08,8.1,11.37,8.21
	c0.45,0.24,0.46,0.71,0.43,1.11c-0.2,0.869-0.819,2.47-1.62,2.59c-0.17,0.02-0.34-0.07-0.52-0.27C8.96,10.76,9.05,9.62,8.89,8.65
	c-0.16-0.8-0.27-2.43-1.23-2.78C6.61,5.74,5.69,6.52,5.01,7.141c-0.41,0.39-0.83,0.75-1.26,1.1v0.07c0.1,0.119,0.18,0.25,0.27,0.369
	C4.18,8.84,4.47,8.8,4.64,8.74c0.64-0.16,0.87-0.33,1.21,0.28c0.52,1.4,0.91,2.971,1.25,4.3c0.24,0.771,0.55,1.74,1.32,2.051
	c0.47,0.199,1.29-0.07,1.65-0.28c1.55-0.979,2.75-2.55,3.61-4.069C14.311,9.75,15.88,7.21,15,6.01z"/>
</svg>
